<svg width="1044" height="696" viewBox="0 0 1044 696" fill="none" xmlns="http://www.w3.org/2000/svg">
<path d="M240.496 105.054H74.0405V404.084H240.496V105.054Z" fill="#EBEBEB"/>
<path d="M232.13 113.726H80.6943V395.175H232.13V113.726Z" fill="#FAFAFA"/>
<path d="M232.13 117.039L80.6943 309.678V113.726H232.13V117.039Z" fill="#F5F5F5"/>
<path d="M235.415 194.685H80.6943V197.678H235.415V194.685Z" fill="#EBEBEB"/>
<path d="M235.415 261.71H80.6943V264.703H235.415V261.71Z" fill="#EBEBEB"/>
<path d="M235.415 328.735H80.6943V331.727H235.415V328.735Z" fill="#EBEBEB"/>
<path d="M152.59 196.181V403.144H160.246V196.181H152.59Z" fill="#EBEBEB"/>
<path d="M113.323 113.726H109.857V196.188H113.323V113.726Z" fill="#EBEBEB"/>
<path d="M143.223 113.726H139.757V196.188H143.223V113.726Z" fill="#EBEBEB"/>
<path d="M173.109 113.726H169.643V196.188H173.109V113.726Z" fill="#EBEBEB"/>
<path d="M203.009 113.726H199.543V196.188H203.009V113.726Z" fill="#EBEBEB"/>
<path d="M74.0543 99.9734H67.0107V405.921H74.0543V99.9734Z" fill="#F5F5F5"/>
<path d="M247.54 406.77L240.496 404.07V99.9734H247.54V406.77Z" fill="#E0E0E0"/>
<path d="M247.553 96.8971H67.0107V105.054H247.553V96.8971Z" fill="#E0E0E0"/>
<path d="M252.314 407.772H62.0137V415.373H252.314V407.772Z" fill="#E0E0E0"/>
<path d="M240.496 404.07L252.3 407.772H62.0137L74.0406 404.07H240.496Z" fill="#EBEBEB"/>
<path d="M956.527 291.457C956.527 291.457 944.765 290.608 945.85 317C946.936 343.392 949.623 357.452 949.623 357.452C949.623 357.452 949.275 363.298 944.751 362.157C940.213 361.001 931.694 355.308 927.476 359.567C923.105 363.98 924.664 370.759 930.455 378.735C936.245 386.711 948.3 404.654 949.386 406.283C950.444 407.884 950.875 410.877 947.66 410.584C944.444 410.292 922.757 402.942 919.89 413.452C917.022 423.947 936.802 443.519 938.932 445.704C941.048 447.89 941.173 449.268 940.31 450.576C939.447 451.899 932.39 448.739 926.14 446.902C919.89 445.064 912.317 444.034 911.162 450.228C910.006 456.423 918.734 474.561 951.377 493.617L967.078 501.454L981.945 491.975C1012.51 469.744 1019.38 450.827 1017.61 444.786C1015.84 438.731 1008.41 440.526 1002.38 442.976C996.338 445.426 989.643 449.282 988.654 448.057C987.666 446.832 987.638 445.454 989.531 443.06C991.424 440.679 1009.16 419.229 1005.25 409.067C1001.34 398.905 980.497 408.385 977.323 408.997C974.15 409.61 974.275 406.589 975.18 404.891C976.098 403.165 986.288 384.108 991.257 375.589C996.227 367.07 997.09 360.18 992.301 356.227C987.68 352.413 979.773 358.927 975.375 360.528C970.976 362.129 970.057 356.338 970.057 356.338C970.057 356.338 971.324 342.084 969.765 315.719C968.206 289.355 956.304 291.485 956.304 291.485" fill="#EBEBEB"/>
<path d="M957.446 315.093C957.446 315.093 957.473 315.274 957.515 315.65C957.543 316.04 957.585 316.582 957.64 317.265C957.738 318.712 957.877 320.814 958.058 323.501C958.42 328.916 958.879 336.753 959.422 346.441C960.494 365.818 961.761 392.586 963.041 422.152C964.336 451.732 965.519 478.5 966.494 497.877C966.981 507.537 967.384 515.374 967.663 520.817C967.802 523.503 967.899 525.605 967.969 527.053C967.997 527.749 968.025 528.278 968.039 528.682C968.053 529.043 968.039 529.238 968.039 529.238C968.039 529.238 968.011 529.057 967.969 528.682C967.941 528.292 967.899 527.749 967.844 527.067C967.746 525.619 967.607 523.517 967.426 520.831C967.064 515.416 966.605 507.579 966.062 497.891C964.99 478.514 963.723 451.746 962.429 422.166C961.134 392.6 959.951 365.831 958.977 346.455C958.49 336.794 958.086 328.957 957.808 323.515C957.668 320.828 957.571 318.726 957.501 317.278C957.473 316.582 957.446 316.04 957.432 315.65C957.446 315.288 957.446 315.093 957.446 315.093Z" fill="#E0E0E0"/>
<path d="M939.071 368.017C939.099 367.989 939.447 368.281 940.046 368.824C940.644 369.367 941.493 370.188 942.537 371.219C944.611 373.265 947.395 376.188 950.416 379.445C953.367 382.675 956.04 385.598 958.1 387.853C959.019 388.841 959.798 389.69 960.438 390.386C960.995 390.985 961.287 391.333 961.26 391.361C961.232 391.389 960.884 391.096 960.271 390.553C959.673 389.997 958.824 389.175 957.794 388.145C955.747 386.071 952.991 383.12 949.984 379.863C947.02 376.661 944.319 373.766 942.245 371.525C941.326 370.536 940.533 369.687 939.892 369.005C939.336 368.393 939.043 368.045 939.071 368.017Z" fill="#E0E0E0"/>
<path d="M962.805 390.846C962.693 390.734 968.429 384.721 975.625 377.413C982.822 370.105 988.766 364.286 988.877 364.398C988.988 364.509 983.253 370.522 976.057 377.83C968.86 385.138 962.93 390.971 962.805 390.846Z" fill="#E0E0E0"/>
<path d="M962.749 436.35C962.735 436.308 963.125 436.072 963.849 435.654C964.684 435.181 965.714 434.61 966.925 433.928C969.514 432.467 973.092 430.448 976.948 428.068C980.818 425.701 984.242 423.446 986.72 421.79C987.875 421.024 988.849 420.37 989.643 419.841C990.339 419.382 990.729 419.145 990.756 419.187C990.784 419.215 990.436 419.521 989.782 420.036C989.128 420.551 988.167 421.275 986.956 422.152C984.548 423.892 981.138 426.216 977.268 428.597C973.398 430.977 969.779 432.954 967.134 434.318C965.812 435 964.726 435.529 963.974 435.877C963.195 436.211 962.763 436.392 962.749 436.35Z" fill="#E0E0E0"/>
<path d="M936.733 420.426C936.761 420.384 937.137 420.579 937.819 420.941C938.501 421.303 939.475 421.846 940.672 422.528C943.067 423.892 946.338 425.799 949.943 427.943C953.548 430.086 956.792 432.063 959.13 433.511C960.3 434.234 961.232 434.833 961.886 435.251C962.527 435.668 962.875 435.919 962.847 435.96C962.819 436.002 962.443 435.807 961.761 435.445C961.079 435.083 960.105 434.541 958.908 433.859C956.513 432.494 953.242 430.587 949.623 428.444C946.018 426.3 942.774 424.323 940.436 422.876C939.266 422.152 938.334 421.553 937.68 421.136C937.053 420.718 936.705 420.467 936.733 420.426Z" fill="#E0E0E0"/>
<path d="M931.568 460.599C931.596 460.557 932.083 460.808 932.946 461.267C933.921 461.796 935.146 462.478 936.607 463.285C939.684 465.011 943.901 467.434 948.551 470.134C953.2 472.835 957.39 475.312 960.411 477.136C961.83 478.013 963.027 478.737 963.974 479.321C964.809 479.85 965.255 480.156 965.241 480.198C965.227 480.24 964.726 479.989 963.863 479.53C962.902 479.001 961.677 478.319 960.202 477.512C957.125 475.786 952.908 473.363 948.258 470.663C943.609 467.963 939.419 465.485 936.398 463.661C934.979 462.784 933.782 462.06 932.835 461.476C932 460.933 931.554 460.627 931.568 460.599Z" fill="#E0E0E0"/>
<path d="M964.559 479.488C964.545 479.447 965.032 479.126 965.923 478.57C966.925 477.957 968.206 477.178 969.737 476.245C972.953 474.282 977.393 471.554 982.223 468.408C987.054 465.276 991.341 462.311 994.431 460.167C995.907 459.137 997.146 458.288 998.106 457.62C998.969 457.021 999.47 456.701 999.498 456.743C999.526 456.771 999.08 457.161 998.245 457.815C997.424 458.469 996.199 459.402 994.682 460.515C991.647 462.756 987.388 465.777 982.543 468.923C977.713 472.069 973.231 474.742 969.946 476.621C968.303 477.553 966.967 478.291 966.034 478.778C965.102 479.266 964.573 479.516 964.559 479.488Z" fill="#E0E0E0"/>
<path d="M988.153 506.591H944.709L958.893 613.914H973.983L988.153 506.591Z" fill="#E0E0E0"/>
<path d="M946.964 519.773C946.95 519.787 947.006 519.926 947.201 520.149C947.382 520.371 947.73 520.678 948.245 520.9C949.275 521.346 951.084 521.387 952.838 520.343C954.592 519.369 956.123 517.476 958.476 516.641C960.8 515.75 963.696 515.917 966.466 516.794C969.264 517.657 971.7 519.077 973.899 520.399C976.112 521.708 978.131 522.891 979.954 523.642C981.764 524.436 983.323 524.798 984.423 524.937C984.966 525.007 985.397 525.034 985.689 525.021C985.982 525.021 986.135 525.007 986.135 524.979C986.163 524.84 983.671 524.853 980.177 523.183C978.423 522.376 976.447 521.179 974.261 519.842C972.076 518.492 969.584 517.017 966.702 516.126C963.849 515.207 960.773 515.04 958.267 516.028C957.014 516.502 955.97 517.253 955.093 517.991C954.202 518.729 953.409 519.411 952.602 519.912C951.015 520.942 949.344 520.984 948.37 520.65C947.34 520.302 947.02 519.717 946.964 519.773Z" fill="#F5F5F5"/>
<path d="M948.551 539.553C948.607 539.595 948.899 539.108 949.581 538.398C950.277 537.716 951.404 536.811 953.047 536.198C954.676 535.572 956.778 535.196 959.088 535.293C961.413 535.377 963.946 535.878 966.647 536.324C969.333 536.783 972.006 536.978 974.386 536.644C976.767 536.337 978.841 535.655 980.483 534.904C982.126 534.152 983.351 533.331 984.144 532.732C984.952 532.12 985.328 531.716 985.3 531.688C985.216 531.577 983.546 533.066 980.275 534.444C978.646 535.113 976.614 535.739 974.303 535.989C971.992 536.282 969.431 536.059 966.758 535.614C964.086 535.182 961.51 534.681 959.102 534.625C956.694 534.57 954.537 535.015 952.852 535.725C951.154 536.421 950.013 537.437 949.372 538.203C949.066 538.606 948.829 538.927 948.718 539.163C948.593 539.4 948.537 539.539 948.551 539.553Z" fill="#F5F5F5"/>
<path d="M983.24 550.132C983.253 550.104 982.85 549.826 982.042 549.506C981.235 549.186 979.996 548.866 978.437 548.74C976.878 548.615 975.013 548.712 972.994 549.046C970.962 549.381 968.791 549.937 966.522 550.425C964.239 550.912 962.039 551.232 960.049 551.148C958.058 551.079 956.29 550.647 954.912 550.035C952.114 548.81 951.126 547.028 951.015 547.139C950.987 547.153 951.182 547.599 951.752 548.267C952.309 548.935 953.284 549.784 954.704 550.494C956.109 551.19 957.947 551.691 960.021 551.803C962.095 551.914 964.364 551.594 966.661 551.107C968.972 550.619 971.129 550.035 973.106 549.687C975.082 549.325 976.892 549.172 978.409 549.227C981.458 549.339 983.198 550.258 983.24 550.132Z" fill="#F5F5F5"/>
<path d="M952.393 565.013C952.421 565.124 953.938 564.052 956.61 564.581C957.919 564.818 959.381 565.486 961.023 566.224C962.666 566.989 964.628 567.644 966.744 567.797C971.018 568.2 974.804 566.822 977.143 565.389C978.34 564.679 979.161 563.913 979.732 563.398C980.261 562.841 980.525 562.507 980.497 562.479C980.4 562.382 979.258 563.663 976.892 564.957C974.567 566.238 970.906 567.491 966.814 567.087C962.707 566.85 959.548 564.4 956.694 564.08C955.302 563.871 954.147 564.066 953.423 564.359C952.685 564.665 952.365 564.985 952.393 565.013Z" fill="#F5F5F5"/>
<path d="M954.815 585.614C954.815 585.698 956.277 585.684 958.434 584.89C960.62 584.167 963.32 582.482 966.48 581.23C968.067 580.631 969.654 580.255 971.101 580.269C972.549 580.269 973.83 580.631 974.818 581.118C976.809 582.107 977.393 583.526 977.505 583.429C977.532 583.415 977.449 583.067 977.087 582.51C976.739 581.967 976.071 581.257 975.055 580.673C974.039 580.088 972.674 579.657 971.115 579.615C969.556 579.573 967.872 579.949 966.243 580.575C962.972 581.884 960.355 583.596 958.267 584.431C956.193 585.322 954.801 585.503 954.815 585.614Z" fill="#F5F5F5"/>
<path d="M956.945 595.205C956.917 595.289 957.961 595.665 959.701 596.096C961.427 596.528 963.863 596.987 966.577 597.251C969.292 597.516 971.77 597.544 973.551 597.446C975.333 597.363 976.433 597.196 976.419 597.112C976.405 596.903 972.02 597.084 966.647 596.542C961.274 596.027 957.001 594.996 956.945 595.205Z" fill="#F5F5F5"/>
<path d="M963.5 117.346H829.367V205.543H963.5V117.346Z" fill="#E0E0E0"/>
<path d="M958.767 120.951H834.03V201.589H958.767V120.951Z" fill="#FAFAFA"/>
<path d="M916.743 150.35H876.055V172.538H916.743V150.35Z" fill="#E0E0E0"/>
<path d="M1001.2 615.334C1001.2 615.528 786.633 615.696 522.028 615.696C257.325 615.696 42.8179 615.528 42.8179 615.334C42.8179 615.139 257.325 614.972 522.028 614.972C786.633 614.972 1001.2 615.139 1001.2 615.334Z" fill="#263238"/>
<path d="M668.48 349.392H403.819V53.244H691.072V326.828C691.059 339.286 680.953 349.392 668.48 349.392Z" fill="#EBEBEB"/>
<path d="M667.339 141.385C667.339 141.984 615.417 142.471 551.385 142.471C487.339 142.471 435.432 141.984 435.432 141.385C435.432 140.787 487.339 140.3 551.385 140.3C615.431 140.3 667.339 140.787 667.339 141.385Z" fill="#455A64"/>
<path d="M552.764 161.444C552.764 162.043 527.109 162.53 495.483 162.53C463.843 162.53 438.188 162.043 438.188 161.444C438.188 160.846 463.829 160.358 495.483 160.358C527.123 160.358 552.764 160.846 552.764 161.444Z" fill="#455A64"/>
<path d="M598.602 159.593C598.602 160.191 591.809 160.679 583.429 160.679C575.049 160.679 568.256 160.191 568.256 159.593C568.256 158.994 575.049 158.507 583.429 158.507C591.809 158.507 598.602 158.994 598.602 159.593Z" fill="#455A64"/>
<path d="M673.533 158.354C673.533 158.952 660.087 159.44 643.494 159.44C626.901 159.44 613.455 158.952 613.455 158.354C613.455 157.755 626.901 157.268 643.494 157.268C660.087 157.268 673.533 157.755 673.533 158.354Z" fill="#455A64"/>
<path d="M543.2 180.64C543.2 181.238 519.077 181.726 489.316 181.726C459.555 181.726 435.432 181.238 435.432 180.64C435.432 180.041 459.555 179.554 489.316 179.554C519.077 179.554 543.2 180.041 543.2 180.64Z" fill="#455A64"/>
<path d="M673.533 180.097C673.533 180.696 647.183 181.183 614.693 181.183C582.19 181.183 555.854 180.696 555.854 180.097C555.854 179.498 582.19 179.011 614.693 179.011C647.197 179.011 673.533 179.484 673.533 180.097Z" fill="#455A64"/>
<path d="M673.533 199.418C673.533 200.016 661.799 200.504 647.336 200.504C632.859 200.504 621.138 200.016 621.138 199.418C621.138 198.819 632.859 198.332 647.336 198.332C661.812 198.318 673.533 198.805 673.533 199.418Z" fill="#455A64"/>
<path d="M565.152 119.879C565.152 120.478 536.728 120.965 501.677 120.965C466.613 120.965 438.188 120.478 438.188 119.879C438.188 119.28 466.599 118.793 501.677 118.793C536.728 118.793 565.152 119.28 565.152 119.879Z" fill="#E8505B"/>
<path d="M741.741 613.719H185.595C174.39 613.719 165.314 604.643 165.314 593.437V239.396C165.314 228.191 174.39 219.115 185.595 219.115H741.741C752.947 219.115 762.023 228.191 762.023 239.396V593.437C762.023 604.643 752.947 613.719 741.741 613.719Z" fill="#263238"/>
<path d="M762.914 619.064H165.982C152.299 619.064 141.205 607.97 141.205 594.287V584.529H787.691V594.287C787.677 607.97 776.597 619.064 762.914 619.064Z" fill="#263238"/>
<path d="M745.166 234.803H182.171V568.033H745.166V234.803Z" fill="#455A64"/>
<path d="M405.685 584.529C405.671 584.529 405.88 584.515 406.311 584.515C406.771 584.515 407.397 584.501 408.204 584.501C409.916 584.487 412.394 584.473 415.554 584.459C422.013 584.431 431.311 584.389 442.837 584.348C466.056 584.292 498.197 584.222 534.041 584.153H534.709L534.375 584.737C533.234 586.7 531.995 588.816 530.756 590.946C529.461 593.173 528.167 595.386 526.928 597.502L526.817 597.697H526.594C476.983 597.6 434.624 597.53 413.717 597.488H413.619L413.563 597.405C410.988 593.215 409.012 589.999 407.647 587.786C407.007 586.742 406.506 585.921 406.158 585.35C405.838 584.793 405.685 584.529 405.685 584.529C405.685 584.529 405.894 584.821 406.242 585.378C406.617 585.948 407.132 586.77 407.814 587.814C409.206 589.971 411.225 593.117 413.842 597.196L413.689 597.112C434.597 597.071 476.969 597.001 526.566 596.904L526.232 597.098C527.471 594.983 528.765 592.769 530.06 590.542C531.299 588.412 532.538 586.31 533.679 584.334L534.013 584.918C498.308 584.835 466.292 584.779 443.171 584.724C431.604 584.682 422.25 584.64 415.763 584.612C412.547 584.598 410.042 584.584 408.302 584.57C407.467 584.557 406.826 584.556 406.339 584.556C405.935 584.543 405.685 584.529 405.685 584.529Z" fill="#455A64"/>
<path d="M762.023 584.529C762.023 584.724 628.433 584.891 463.689 584.891C298.877 584.891 165.328 584.724 165.328 584.529C165.328 584.334 298.891 584.167 463.689 584.167C628.433 584.167 762.023 584.334 762.023 584.529Z" fill="#455A64"/>
<path d="M609.738 168.251C618.939 168.251 626.4 175.712 626.4 184.913V219.115H576.566V187.558C576.566 176.895 585.211 168.237 595.887 168.237H609.738V168.251Z" fill="#263238"/>
<path d="M609.738 168.251C609.738 168.446 562.716 168.571 504.712 168.516C446.693 168.46 399.671 168.265 399.671 168.056C399.671 167.861 446.693 167.736 504.712 167.792C562.716 167.847 609.738 168.056 609.738 168.251Z" fill="#263238"/>
<path d="M609.306 168.209L588.524 168.07L558.331 168.251H336.516C317.682 168.251 302.412 183.521 302.412 202.355V562.535V568.827H589.665V186.946C590.514 168.251 609.306 168.209 609.306 168.209Z" fill="#FAFAFA"/>
<path d="M609.306 168.209L436.1 168.585L349.503 168.655L338.674 168.669C336.864 168.627 335.082 168.738 333.301 168.836C331.533 169.086 329.765 169.281 328.053 169.796C321.121 171.508 314.898 175.67 310.374 181.169C308.119 183.939 306.365 187.085 305.085 190.398C304.806 191.247 304.417 192.054 304.222 192.917L303.554 195.506C303.289 197.26 302.941 199.014 302.927 200.81C302.774 207.979 302.899 215.231 302.858 222.442L303.094 568.841L302.398 568.145L589.651 568.326L589.15 568.827L589.289 362.811L589.456 259.803L589.554 208.299L589.582 195.423L589.596 188.992C589.596 187.92 589.568 186.848 589.735 185.776C589.874 184.705 589.916 183.633 590.236 182.603C591.182 178.427 593.577 174.501 597.196 172.121C598.95 170.882 600.913 169.949 602.973 169.337C605.033 168.683 607.149 168.279 609.306 168.209ZM609.306 168.209C607.163 168.279 605.033 168.697 602.987 169.337C600.94 169.963 598.978 170.91 597.238 172.149C593.646 174.543 591.28 178.454 590.347 182.617C590.027 183.647 589.985 184.718 589.86 185.776C589.693 186.834 589.735 187.906 589.735 188.992L589.749 195.437L589.777 208.313L589.874 259.817L590.041 362.825L590.18 568.841V569.342H589.679L302.426 569.523H301.73V568.827L301.967 222.428C302.008 215.203 301.897 208.007 302.064 200.754C302.078 198.917 302.426 197.121 302.704 195.312L303.386 192.653C303.595 191.762 303.985 190.927 304.277 190.064C305.6 186.667 307.395 183.438 309.72 180.598C314.369 174.974 320.745 170.715 327.858 168.975C329.612 168.446 331.435 168.251 333.245 168.001C335.068 167.903 336.892 167.806 338.688 167.833L349.517 167.847L436.114 167.917L609.306 168.209Z" fill="#263238"/>
<path d="M345.689 234.19H395.815L395.899 250.978H393.504C392.711 244.964 390.47 240.913 386.753 238.784C384.665 237.614 381.547 236.974 377.399 236.863V280.725C377.399 283.787 377.928 285.819 379 286.822C380.072 287.824 382.299 288.325 385.681 288.325V290.441H356.004V288.325C359.261 288.325 361.419 287.81 362.491 286.794C363.563 285.778 364.091 283.745 364.091 280.711V236.849C360.027 236.96 356.909 237.601 354.737 238.77C350.756 240.941 348.501 245.006 347.986 250.964H345.592L345.689 234.19Z" fill="#E8505B"/>
<path d="M550.244 237.976C550.244 238.575 522.598 239.062 488.494 239.062C454.377 239.062 426.731 238.575 426.731 237.976C426.731 237.378 454.377 236.891 488.494 236.891C522.598 236.891 550.244 237.378 550.244 237.976Z" fill="#E8505B"/>
<path d="M476.969 257.701C476.969 258.3 466.278 258.787 453.096 258.787C439.9 258.787 429.223 258.3 429.223 257.701C429.223 257.102 439.914 256.615 453.096 256.615C466.278 256.615 476.969 257.102 476.969 257.701Z" fill="#455A64"/>
<path d="M416.779 317.905C416.779 318.504 396.469 318.991 371.441 318.991C346.399 318.991 326.09 318.504 326.09 317.905C326.09 317.306 346.385 316.819 371.441 316.819C396.483 316.819 416.779 317.306 416.779 317.905Z" fill="#455A64"/>
<path d="M519.481 317.905C519.481 318.504 499.171 318.991 474.143 318.991C449.101 318.991 428.792 318.504 428.792 317.905C428.792 317.306 449.087 316.819 474.143 316.819C499.171 316.819 519.481 317.306 519.481 317.905Z" fill="#E8505B"/>
<path d="M416.779 333.983C416.779 334.581 396.469 335.068 371.441 335.068C346.399 335.068 326.09 334.581 326.09 333.983C326.09 333.384 346.385 332.897 371.441 332.897C396.483 332.897 416.779 333.384 416.779 333.983Z" fill="#455A64"/>
<path d="M416.779 350.06C416.779 350.659 396.469 351.146 371.441 351.146C346.399 351.146 326.09 350.659 326.09 350.06C326.09 349.462 346.385 348.974 371.441 348.974C396.483 348.96 416.779 349.448 416.779 350.06Z" fill="#E8505B"/>
<path d="M476.969 290.455C476.969 291.053 466.278 291.541 453.096 291.541C439.9 291.541 429.223 291.053 429.223 290.455C429.223 289.856 439.914 289.369 453.096 289.369C466.278 289.369 476.969 289.856 476.969 290.455Z" fill="#455A64"/>
<path d="M559.793 317.905C559.793 318.504 552.666 318.991 543.883 318.991C535.085 318.991 527.958 318.504 527.958 317.905C527.958 317.306 535.085 316.819 543.883 316.819C552.666 316.819 559.793 317.306 559.793 317.905Z" fill="#455A64"/>
<path d="M568.312 257.701C568.312 258.3 549.965 258.787 527.345 258.787C504.712 258.787 486.379 258.3 486.379 257.701C486.379 257.102 504.725 256.615 527.345 256.615C549.965 256.615 568.312 257.102 568.312 257.701Z" fill="#455A64"/>
<path d="M564.609 273.389C564.609 273.987 534.292 274.475 496.916 274.475C459.527 274.475 429.209 273.987 429.209 273.389C429.209 272.79 459.513 272.303 496.916 272.303C534.306 272.303 564.609 272.79 564.609 273.389Z" fill="#455A64"/>
<path d="M559.793 333.983C559.793 334.581 530.464 335.068 494.3 335.068C458.121 335.068 428.792 334.581 428.792 333.983C428.792 333.384 458.108 332.897 494.3 332.897C530.464 332.897 559.793 333.384 559.793 333.983Z" fill="#455A64"/>
<path d="M559.793 380.517C559.793 381.116 532.273 381.603 498.336 381.603C464.385 381.603 436.865 381.116 436.865 380.517C436.865 379.919 464.385 379.431 498.336 379.431C532.273 379.431 559.793 379.919 559.793 380.517Z" fill="#E8505B"/>
<path d="M559.793 396.163C559.793 396.762 532.273 397.249 498.336 397.249C464.385 397.249 436.865 396.762 436.865 396.163C436.865 395.565 464.385 395.077 498.336 395.077C532.273 395.077 559.793 395.565 559.793 396.163Z" fill="#455A64"/>
<path d="M559.793 411.809C559.793 412.408 532.273 412.895 498.336 412.895C464.385 412.895 436.865 412.408 436.865 411.809C436.865 411.211 464.385 410.724 498.336 410.724C532.273 410.724 559.793 411.211 559.793 411.809Z" fill="#455A64"/>
<path d="M559.793 427.455C559.793 428.054 532.273 428.541 498.336 428.541C464.385 428.541 436.865 428.054 436.865 427.455C436.865 426.857 464.385 426.37 498.336 426.37C532.273 426.37 559.793 426.857 559.793 427.455Z" fill="#455A64"/>
<path d="M507.635 443.101C507.635 443.408 503.667 443.672 497.264 443.867C490.861 444.062 482.022 444.187 472.25 444.187C462.478 444.187 453.625 444.062 447.222 443.867C440.819 443.672 436.865 443.394 436.865 443.101C436.865 442.795 440.819 442.531 447.222 442.336C453.625 442.141 462.478 442.016 472.25 442.016C482.022 442.016 490.861 442.141 497.264 442.336C503.667 442.531 507.635 442.795 507.635 443.101Z" fill="#455A64"/>
<path d="M537.521 350.895C537.521 351.494 513.815 351.981 484.583 351.981C455.337 351.981 431.646 351.494 431.646 350.895C431.646 350.297 455.351 349.81 484.583 349.81C513.815 349.81 537.521 350.297 537.521 350.895Z" fill="#455A64"/>
<path d="M414.635 382.285L421.164 503.055L303.08 517.838L302.983 381.255L414.635 382.285Z" fill="#E0E0E0"/>
<path d="M261.745 373.903L260.921 502.023L421.168 503.052L421.992 374.932L261.745 373.903Z" fill="#F5F5F5"/>
<path d="M267.213 382.005L266.493 493.991L415.479 494.948L416.198 382.962L267.213 382.005Z" fill="#E8505B"/>
<g opacity="0.2">
<path opacity="0.2" d="M266.484 493.993L318.977 424.713L350.923 468.478L372.945 445.329L415.484 494.953L266.484 493.993Z" fill="black"/>
</g>
<g opacity="0.2">
<g opacity="0.2">
<g opacity="0.2">
<path opacity="0.2" d="M364.941 416.486C364.899 422.959 359.609 428.179 353.137 428.137C346.664 428.096 341.444 422.806 341.486 416.333C341.527 409.86 346.817 404.64 353.29 404.682C359.763 404.724 364.983 410.014 364.941 416.486Z" fill="black"/>
</g>
</g>
</g>
<path d="M436.587 533.275C436.587 534.639 435.473 535.753 434.109 535.753C432.745 535.753 431.631 534.639 431.631 533.275C431.631 531.911 432.745 530.797 434.109 530.797C435.487 530.797 436.587 531.911 436.587 533.275Z" fill="#263238"/>
<path d="M451.3 533.275C451.3 534.639 450.187 535.753 448.822 535.753C447.458 535.753 446.345 534.639 446.345 533.275C446.345 531.911 447.458 530.797 448.822 530.797C450.187 530.797 451.3 531.911 451.3 533.275Z" fill="#263238"/>
<path d="M466 533.275C466 534.639 464.886 535.753 463.522 535.753C462.158 535.753 461.044 534.639 461.044 533.275C461.044 531.911 462.158 530.797 463.522 530.797C464.886 530.797 466 531.911 466 533.275Z" fill="#263238"/>
<path d="M520.177 475.702C520.177 476.301 499.867 476.788 474.839 476.788C449.797 476.788 429.488 476.301 429.488 475.702C429.488 475.104 449.783 474.616 474.839 474.616C499.867 474.616 520.177 475.104 520.177 475.702Z" fill="#E8505B"/>
<path d="M560.489 491.78C560.489 492.378 531.159 492.865 494.995 492.865C458.817 492.865 429.488 492.378 429.488 491.78C429.488 491.181 458.803 490.694 494.995 490.694C531.159 490.694 560.489 491.181 560.489 491.78Z" fill="#455A64"/>
<path d="M848.709 518.541L848.213 595.713L944.734 596.333L945.23 519.161L848.709 518.541Z" fill="#F5F5F5"/>
<path d="M851.997 523.427L851.564 590.883L941.306 591.46L941.74 524.003L851.997 523.427Z" fill="#E8505B"/>
<path opacity="0.2" d="M851.556 590.89L883.168 549.172L902.419 575.522L915.685 561.588L941.298 591.475L851.556 590.89Z" fill="black"/>
<g opacity="0.2">
<g opacity="0.2">
<path opacity="0.2" d="M910.869 544.202C910.841 548.1 907.654 551.246 903.756 551.218C899.858 551.19 896.713 548.003 896.74 544.105C896.768 540.207 899.956 537.061 903.854 537.089C907.751 537.117 910.897 540.305 910.869 544.202Z" fill="black"/>
</g>
</g>
<path d="M834.552 510.484L834.056 587.656L930.577 588.276L931.073 511.104L834.552 510.484Z" fill="#F5F5F5"/>
<path d="M837.855 515.356L837.421 582.812L927.164 583.389L927.597 515.932L837.855 515.356Z" fill="#E8505B"/>
<path opacity="0.2" d="M837.399 582.83L869.026 541.112L888.263 567.463L901.529 553.529L927.156 583.415L837.399 582.83Z" fill="black"/>
<g opacity="0.2">
<g opacity="0.2">
<path opacity="0.2" d="M896.712 536.157C896.685 540.054 893.497 543.2 889.599 543.172C885.702 543.144 882.556 539.957 882.584 536.059C882.612 532.162 885.799 529.016 889.697 529.044C893.594 529.057 896.74 532.245 896.712 536.157Z" fill="black"/>
</g>
</g>
<path d="M821.951 503.83L821.455 581.003L917.976 581.623L918.472 504.45L821.951 503.83Z" fill="#F5F5F5"/>
<path d="M825.24 508.702L824.807 576.158L914.549 576.735L914.982 509.278L825.24 508.702Z" fill="#E8505B"/>
<path opacity="0.2" d="M824.802 576.177L856.414 534.445L875.665 560.809L888.917 546.861L914.544 576.747L824.802 576.177Z" fill="black"/>
<g opacity="0.2">
<g opacity="0.2">
<path opacity="0.2" d="M884.101 529.489C884.073 533.387 880.885 536.532 876.988 536.505C873.09 536.477 869.944 533.289 869.972 529.392C870 525.494 873.187 522.348 877.085 522.376C880.983 522.404 884.128 525.591 884.101 529.489Z" fill="black"/>
</g>
</g>
<path d="M807.79 512.107L807.294 589.279L903.815 589.899L904.311 512.727L807.79 512.107Z" fill="#F5F5F5"/>
<path d="M811.092 516.993L810.659 584.449L900.401 585.025L900.835 517.569L811.092 516.993Z" fill="#455A64"/>
<path opacity="0.2" d="M810.646 584.459L842.258 542.741L861.509 569.091L874.761 555.157L900.388 585.044L810.646 584.459Z" fill="black"/>
<g opacity="0.2">
<g opacity="0.2">
<path opacity="0.2" d="M869.944 537.785C869.917 541.683 866.729 544.829 862.831 544.801C858.934 544.773 855.788 541.585 855.816 537.688C855.843 533.79 859.031 530.644 862.929 530.672C866.826 530.7 869.972 533.874 869.944 537.785Z" fill="black"/>
</g>
</g>
<path d="M960.021 540.834H904.299V615.348H960.021V540.834Z" fill="#263238"/>
<path d="M797.574 540.834V615.348H909.032V540.834H797.574ZM865.156 558.456H841.464C838.638 558.456 836.341 556.16 836.341 553.334C836.341 550.508 838.638 548.211 841.464 548.211H865.156C867.982 548.211 870.278 550.508 870.278 553.334C870.278 556.16 867.982 558.456 865.156 558.456Z" fill="#E8505B"/>
<path d="M725.301 607.552L621.653 601.205C620.999 599.715 620.567 598.852 620.567 598.852L592.477 599.409L583.331 598.852C583.331 598.852 583.192 599.131 582.969 599.604L488.675 601.483C469.869 601.483 450.117 612.953 450.117 627.611C449.88 641.559 456.631 656.704 473.475 656.356L601.956 655.924L730.424 656.356C747.267 656.704 751.721 646.542 751.749 634.488C753.726 612.048 739.667 607.733 725.301 607.552Z" fill="#455A64"/>
<path d="M485.279 656.37C485.279 656.37 485.488 656.342 485.891 656.328C486.337 656.314 486.935 656.314 487.701 656.3C489.33 656.286 491.682 656.258 494.703 656.231C500.814 656.203 509.639 656.161 520.552 656.119C542.476 656.091 572.85 656.05 606.814 656.008L606.452 656.398C606.272 653.586 606.091 650.565 605.896 647.531C605.506 641.322 605.13 635.197 604.768 629.393L605.088 629.727C573.532 626.219 545.65 623.115 525.619 620.888C515.652 619.746 507.634 618.828 502.066 618.187C499.324 617.853 497.208 617.603 495.719 617.422C495.023 617.324 494.48 617.255 494.076 617.213C493.7 617.157 493.519 617.129 493.519 617.115C493.519 617.101 493.714 617.115 494.076 617.143C494.48 617.185 495.023 617.227 495.719 617.296C497.208 617.449 499.338 617.658 502.08 617.937C507.648 618.521 515.666 619.37 525.647 620.414C545.678 622.586 573.573 625.607 605.144 629.017L605.45 629.045L605.464 629.351C605.826 635.17 606.216 641.28 606.606 647.489C606.8 650.523 606.981 653.544 607.162 656.356L607.19 656.746H606.8C572.822 656.704 542.448 656.662 520.538 656.634C509.611 656.593 500.8 656.551 494.689 656.523C491.668 656.495 489.316 656.467 487.687 656.453C486.907 656.439 486.309 656.425 485.877 656.425C485.488 656.384 485.279 656.37 485.279 656.37Z" fill="#263238"/>
<path d="M511.769 619.51C511.685 619.607 510.405 618.563 508.136 617.185C505.881 615.807 502.581 614.164 498.698 613.037C494.814 611.923 491.153 611.561 488.494 611.533C485.85 611.506 484.193 611.7 484.179 611.575C484.179 611.519 484.583 611.436 485.321 611.311C486.058 611.171 487.144 611.074 488.494 611.018C491.181 610.907 494.939 611.199 498.893 612.341C502.846 613.482 506.187 615.236 508.4 616.753C509.514 617.505 510.377 618.173 510.933 618.674C511.504 619.176 511.796 619.468 511.769 619.51Z" fill="#263238"/>
<path d="M717.256 613.997C717.298 614.192 696.863 619.134 671.598 625.036C646.333 630.938 625.815 635.559 625.774 635.364C625.732 635.17 646.166 630.228 671.431 624.326C696.696 618.424 717.214 613.802 717.256 613.997Z" fill="#263238"/>
<path d="M699.981 611.993C700.05 612.216 696.027 613.023 691.977 615.835C687.884 618.591 685.657 622.029 685.462 621.876C685.393 621.834 685.838 620.916 686.854 619.607C687.856 618.299 689.471 616.656 691.559 615.236C693.647 613.816 695.777 612.925 697.364 612.466C698.937 612.007 699.967 611.909 699.981 611.993Z" fill="#263238"/>
<path d="M661.395 494.327L694.218 551.469C698.269 558.526 698.519 567.143 694.886 574.423C690.668 582.872 681.927 588.106 672.489 587.842L622.085 586.422L620.762 568.089L665.153 559.584L635.225 507.774L661.395 494.327Z" fill="#FFBE9D"/>
<path d="M539.038 592.129L585.392 604.406L586.394 590.5L543.673 565.695L574.868 507.788L548.685 494.341L515.861 551.483C507.913 566.238 515.332 584.598 531.313 589.679L539.038 592.129Z" fill="#FFBE9D"/>
<path d="M647.461 531.02L679.143 514.33C679.143 514.33 673.867 503.166 665.571 491.696C655.757 478.124 640.543 468.631 623.254 465.025L586.811 465.457C581.619 466.014 577.36 467.002 573.81 468.45L573.838 468.311C554.058 472.667 532.12 515.806 532.12 515.806L560.948 530.978L561.588 535.516C562.423 541.488 565.04 547.098 569.105 551.677L560.711 606.898L654.282 608.833L642.366 569.286L647.461 531.02Z" fill="#E8505B"/>
<path d="M569.954 551.984C569.926 552.012 569.411 551.664 568.562 550.926C567.713 550.188 566.557 549.019 565.374 547.362C563.022 544.091 560.92 538.551 561.477 532.301C561.922 529.224 562.799 526.427 563.62 523.907C564.456 521.388 565.305 519.16 566.056 517.295C566.794 515.43 567.434 513.94 567.908 512.924C568.367 511.908 568.659 511.351 568.701 511.379C568.743 511.393 568.548 511.992 568.158 513.036C567.727 514.219 567.184 515.708 566.53 517.476C565.848 519.355 565.054 521.596 564.261 524.116C563.481 526.621 562.632 529.419 562.201 532.398C561.922 535.349 562.312 538.286 562.994 540.778C563.662 543.298 564.748 545.413 565.82 547.084C568.005 550.383 570.065 551.858 569.954 551.984Z" fill="#263238"/>
<path d="M555.923 620.233L550.633 558.637H664.624L657.066 620.999L555.923 620.233Z" fill="#263238"/>
<path d="M614.888 591.489C614.888 595.498 611.645 598.741 607.636 598.741C603.627 598.741 600.383 595.498 600.383 591.489C600.383 587.48 603.627 584.236 607.636 584.236C611.645 584.236 614.888 587.48 614.888 591.489Z" fill="#FAFAFA"/>
<path d="M605.631 632.26L624.994 634.961V656.008L607.19 655.548L605.631 632.26Z" fill="#FFBE9D"/>
<path d="M624.993 634.961H633.693C635.392 634.961 637.048 635.406 638.51 636.255L643.103 638.9C644.607 639.763 649.465 642.199 651.121 642.728C656.411 644.426 665.306 646.709 667.185 648.157C672.544 652.291 670.915 657.163 667.964 657.678C665.375 658.124 624.979 655.994 624.979 655.994V634.961H624.993Z" fill="#E8505B"/>
<path d="M639.275 654.268C639.094 654.31 638.426 651.887 638.343 648.797C638.245 645.707 638.76 643.257 638.955 643.285C639.164 643.313 638.969 645.763 639.067 648.783C639.15 651.79 639.484 654.226 639.275 654.268Z" fill="#263238"/>
<path d="M643.409 654.143C643.215 654.143 643.061 651.887 643.089 649.117C643.117 646.347 643.298 644.092 643.493 644.106C643.688 644.106 643.841 646.361 643.813 649.131C643.785 651.901 643.604 654.143 643.409 654.143Z" fill="#263238"/>
<path d="M648.282 654.978C648.087 654.992 647.739 652.695 647.516 649.827C647.293 646.974 647.279 644.635 647.474 644.621C647.669 644.607 648.017 646.904 648.24 649.772C648.463 652.639 648.476 654.964 648.282 654.978Z" fill="#263238"/>
<path d="M635.517 648.658C635.503 648.7 634.849 648.561 633.735 648.101C632.621 647.628 631.048 646.821 629.392 645.415C628.974 645.067 628.557 644.677 628.153 644.245C627.749 643.814 627.304 643.327 627.04 642.672C626.775 642.018 626.775 641.169 627.276 640.515C627.527 640.181 627.944 639.972 628.362 639.916C628.78 639.861 629.169 639.93 629.531 640.056C632.357 641.016 634.779 643.786 635.224 647.196C635.656 650.649 633.805 653.85 631.355 655.465C630.742 655.869 630.102 656.231 629.364 656.356C629.002 656.425 628.612 656.425 628.223 656.3C627.833 656.175 627.513 655.883 627.346 655.521C627.012 654.755 627.304 654.045 627.596 653.516C627.903 652.959 628.334 652.556 628.71 652.166C630.283 650.649 631.87 649.813 632.983 649.368C634.111 648.923 634.779 648.825 634.779 648.853C634.793 648.909 634.167 649.104 633.095 649.619C632.037 650.134 630.533 651.011 629.072 652.528C628.71 652.918 628.334 653.307 628.084 653.781C627.833 654.24 627.666 654.825 627.875 655.242C628.084 655.688 628.64 655.841 629.239 655.702C629.824 655.59 630.408 655.256 630.979 654.88C633.206 653.377 634.89 650.384 634.501 647.252C634.111 644.134 631.856 641.545 629.336 640.654C628.724 640.445 628.097 640.473 627.777 640.877C627.443 641.28 627.401 641.921 627.596 642.422C628.028 643.466 628.988 644.273 629.726 644.983C632.914 647.851 635.586 648.519 635.517 648.658Z" fill="#263238"/>
<path d="M667.965 657.678C667.909 657.609 668.535 657.33 669.023 656.356C669.51 655.395 669.426 653.669 668.452 651.971C667.505 650.259 665.543 648.783 663.079 647.92C660.615 647.029 657.678 646.612 654.727 645.679C648.783 643.911 643.758 641.308 640.347 639.123C638.635 638.037 637.327 637.063 636.436 636.367C635.559 635.657 635.086 635.239 635.113 635.197C635.141 635.156 635.67 635.504 636.603 636.13C637.536 636.756 638.9 637.661 640.626 638.677C644.078 640.724 649.075 643.215 654.936 644.969C657.845 645.874 660.754 646.32 663.315 647.266C665.863 648.199 667.937 649.813 668.911 651.693C669.886 653.53 669.914 655.423 669.287 656.453C668.995 656.968 668.633 657.275 668.396 657.442C668.118 657.636 667.979 657.706 667.965 657.678Z" fill="#263238"/>
<path d="M654.782 480.143C654.796 480.143 654.796 480.24 654.782 480.435C654.769 480.672 654.741 480.95 654.713 481.298C654.643 482.105 654.532 483.233 654.407 484.667C654.1 487.659 653.683 491.933 653.14 497.306L653.112 497.626L652.82 497.473C648.157 495.023 642.463 492.016 636.018 488.634L636.422 488.522C633.652 493.2 630.576 498.392 627.29 503.918L627.096 504.252L626.789 504.015C621.987 500.327 616.795 496.359 611.422 492.225H611.867C609.737 493.896 607.468 495.677 605.172 497.473C602.067 499.895 599.019 502.289 596.04 504.614L595.706 504.878L595.497 504.503C592.463 498.893 589.553 493.506 586.797 488.425L587.229 488.578C580.533 491.557 574.339 494.327 568.785 496.791L568.451 496.944L568.395 496.582C567.323 490.262 566.39 484.764 565.611 480.184L565.889 480.337C561.393 482.05 557.83 483.414 555.338 484.36C554.141 484.806 553.208 485.154 552.526 485.404C552.234 485.502 551.997 485.585 551.802 485.655C551.635 485.711 551.552 485.738 551.552 485.724C551.552 485.711 551.621 485.669 551.788 485.599C551.983 485.516 552.206 485.418 552.498 485.293C553.166 485.015 554.085 484.639 555.268 484.152C557.746 483.163 561.296 481.729 565.75 479.948L565.987 479.85L566.029 480.101C566.85 484.68 567.838 490.165 568.966 496.471L568.562 496.262C574.088 493.756 580.269 490.972 586.964 487.952L587.243 487.826L587.396 488.105C590.152 493.186 593.089 498.573 596.124 504.168L595.581 504.057C598.56 501.719 601.608 499.338 604.698 496.902C606.995 495.107 609.264 493.325 611.394 491.654L611.617 491.487L611.839 491.654C617.212 495.789 622.391 499.784 627.179 503.472L626.678 503.57C629.977 498.058 633.081 492.879 635.879 488.216L636.032 487.966L636.283 488.105C642.7 491.543 648.365 494.592 653.015 497.083L652.694 497.25C653.321 491.891 653.822 487.618 654.17 484.639C654.351 483.219 654.49 482.091 654.588 481.284C654.643 480.936 654.685 480.658 654.713 480.421C654.755 480.24 654.782 480.143 654.782 480.143Z" fill="#F5F5F5"/>
<path d="M668.313 495.649C668.327 495.649 668.299 495.789 668.229 496.053C668.16 496.359 668.062 496.749 667.937 497.236C667.659 498.308 667.255 499.839 666.74 501.788C665.668 505.797 664.109 511.546 662.174 518.729L662.104 519.007L661.84 518.882C656.258 516.195 649.604 513.008 642.199 509.458L642.589 509.361C637.577 516.516 631.995 524.464 626.052 532.955L625.815 533.303L625.523 532.997C620.47 527.874 615.124 522.459 609.626 516.891C608.512 515.75 607.399 514.622 606.285 513.509L606.731 513.564C599.283 518.242 592.087 522.752 585.308 526.997L585.002 527.192L584.821 526.872C580.686 519.564 576.803 512.715 573.267 506.479L573.629 506.618C565.166 509.528 557.718 512.103 551.607 514.205L551.399 514.274L551.329 514.066C549.241 508.01 547.585 503.222 546.443 499.895C545.9 498.28 545.483 497.028 545.176 496.123C545.051 495.719 544.94 495.399 544.87 495.148C544.801 494.926 544.773 494.814 544.787 494.814C544.801 494.814 544.842 494.912 544.926 495.134C545.023 495.385 545.149 495.691 545.288 496.095C545.608 496.986 546.067 498.225 546.666 499.825C547.863 503.138 549.575 507.913 551.747 513.926L551.468 513.787C557.565 511.644 564.985 509.027 573.434 506.048L573.671 505.964L573.796 506.187C577.359 512.423 581.257 519.244 585.419 526.538L584.932 526.413C591.711 522.153 598.894 517.629 606.341 512.952L606.591 512.799L606.8 513.008C607.9 514.121 609.014 515.263 610.141 516.39C615.639 521.972 620.971 527.387 626.024 532.51L625.481 532.551C631.453 524.088 637.062 516.154 642.101 509.013L642.255 508.804L642.491 508.915C649.869 512.507 656.495 515.75 662.063 518.464L661.729 518.617C663.747 511.463 665.376 505.728 666.503 501.732C667.06 499.798 667.505 498.28 667.812 497.208C667.965 496.721 668.076 496.345 668.174 496.039C668.257 495.775 668.299 495.636 668.313 495.649Z" fill="#F5F5F5"/>
<path d="M654.281 398.544C648.713 399.17 642.922 397.332 638.719 393.63C643.785 396.191 650.551 392.683 652.332 387.282C654.114 381.895 652.652 371.859 648.226 368.295C644.008 364.913 638.176 363.618 632.956 365.01C627.736 366.402 622.209 374.351 620.497 379.473L620.595 379.626C619.787 379.306 618.98 379.014 618.173 378.735C612.396 376.8 606.215 375.854 600.16 376.55C594.105 377.246 588.175 379.654 583.693 383.802L619.091 440.693C625.522 440.123 631.216 435.793 634.584 430.281C637.953 424.783 639.248 418.226 639.568 411.781C639.651 410.167 639.637 408.524 639.582 406.896C643.382 407.508 647.168 408.12 650.968 408.719C648.936 405.991 646.347 403.666 643.396 401.954C647.21 403.429 651.956 401.94 654.281 398.544Z" fill="#263238"/>
<path d="M609.529 486.838C619.133 486.629 626.831 478.848 626.943 469.243L627.764 398.46C627.82 395.537 625.634 393.059 622.725 392.753L592.825 385.194C583.248 384.178 576.886 395.968 576.274 405.573C575.606 416.25 575.202 429.307 576.469 437.269C579.016 453.291 591.293 455.323 591.293 455.323C591.293 455.281 591.307 461.518 591.335 469.118C591.391 479.071 599.59 487.047 609.529 486.838Z" fill="#FFBE9D"/>
<path d="M582.496 415.944C582.454 417.029 583.345 417.962 584.473 418.018C585.6 418.073 586.547 417.252 586.588 416.166C586.63 415.08 585.739 414.148 584.612 414.092C583.484 414.036 582.538 414.858 582.496 415.944Z" fill="#263238"/>
<path d="M579.127 412.366C579.378 412.631 580.937 411.489 583.15 411.489C585.364 411.461 586.978 412.603 587.215 412.324C587.326 412.199 587.076 411.726 586.366 411.211C585.67 410.696 584.487 410.195 583.109 410.208C581.73 410.222 580.575 410.723 579.907 411.239C579.225 411.767 579.002 412.255 579.127 412.366Z" fill="#263238"/>
<path d="M603.529 415.944C603.487 417.029 604.378 417.962 605.506 418.018C606.633 418.073 607.58 417.252 607.622 416.166C607.664 415.08 606.773 414.148 605.645 414.092C604.518 414.036 603.571 414.858 603.529 415.944Z" fill="#263238"/>
<path d="M600.856 412.784C601.107 413.048 602.666 411.907 604.879 411.907C607.093 411.879 608.707 413.02 608.944 412.742C609.055 412.617 608.805 412.143 608.095 411.628C607.399 411.113 606.216 410.612 604.838 410.626C603.46 410.64 602.304 411.141 601.636 411.656C600.954 412.185 600.731 412.658 600.856 412.784Z" fill="#263238"/>
<path d="M592.825 429.181C592.839 429.056 591.46 428.82 589.233 428.527C588.663 428.472 588.134 428.36 588.036 427.97C587.897 427.567 588.134 426.954 588.412 426.3C588.941 424.936 589.498 423.502 590.082 421.999C592.407 415.874 594.077 410.849 593.827 410.751C593.576 410.654 591.502 415.54 589.178 421.665C588.621 423.168 588.092 424.616 587.577 425.994C587.368 426.634 586.992 427.358 587.284 428.207C587.438 428.625 587.855 428.931 588.217 429.028C588.579 429.14 588.899 429.14 589.178 429.167C591.433 429.293 592.825 429.307 592.825 429.181Z" fill="#263238"/>
<path d="M591.308 455.337C591.308 455.337 602.082 456.033 612.758 449.616C612.758 449.616 607.552 460.613 591.53 459.123L591.308 455.337Z" fill="#EB996E"/>
<path d="M593.771 434.499C594.564 433.441 595.956 432.87 597.348 433.023C598.309 433.121 599.283 433.594 599.854 434.374C600.439 435.153 600.564 436.267 600.035 437.004C599.436 437.84 598.198 438.035 597.14 437.742C596.082 437.436 595.177 436.754 594.314 436.058C594.077 435.863 593.827 435.668 593.688 435.404C593.534 435.139 593.507 434.805 593.688 434.582" fill="#EB996E"/>
<path d="M599.339 430.699C598.977 430.685 598.977 433.079 596.917 434.777C594.871 436.489 592.31 436.211 592.296 436.545C592.268 436.698 592.867 437.004 593.938 437.046C594.996 437.088 596.541 436.74 597.794 435.696C599.047 434.652 599.59 433.26 599.673 432.272C599.771 431.283 599.493 430.699 599.339 430.699Z" fill="#263238"/>
<path d="M599.854 408.914C600.077 409.513 602.276 409.234 604.865 409.54C607.468 409.805 609.556 410.557 609.904 410.028C610.057 409.763 609.696 409.206 608.846 408.622C608.011 408.037 606.675 407.494 605.116 407.313C603.557 407.146 602.137 407.397 601.19 407.772C600.244 408.162 599.757 408.636 599.854 408.914Z" fill="#263238"/>
<path d="M579.433 408.288C579.823 408.789 581.34 408.274 583.178 408.246C585.001 408.162 586.56 408.58 586.922 408.065C587.075 407.814 586.839 407.313 586.157 406.826C585.489 406.353 584.375 405.963 583.108 406.005C581.855 406.046 580.756 406.506 580.129 407.021C579.475 407.536 579.266 408.051 579.433 408.288Z" fill="#263238"/>
<path d="M625.996 418.366C627.207 417.53 628.905 417.837 630.186 418.574C633.123 420.273 634.599 424.17 633.499 427.386C632.413 430.601 628.877 432.801 625.509 432.355" fill="#FFBE9D"/>
<path d="M627.123 427.595C627.165 427.483 627.75 427.734 628.515 427.372C629.281 427.066 629.963 425.938 629.893 424.63C629.852 423.307 628.989 422.347 628.181 422.054C627.374 421.72 626.789 421.887 626.761 421.762C626.706 421.679 627.304 421.261 628.362 421.498C628.877 421.623 629.462 421.915 629.921 422.472C630.381 423.015 630.673 423.78 630.715 424.574C630.826 426.189 629.81 427.65 628.71 427.901C627.624 428.207 627.04 427.65 627.123 427.595Z" fill="#EB996E"/>
<path d="M631.494 430.838C631.508 430.81 631.773 430.991 632.232 431.353C632.761 431.784 633.415 432.327 634.195 432.954C635.963 434.457 638.315 436.462 641.113 438.828L641.349 439.023L641.155 439.26C638.579 442.35 635.712 446.22 632.496 450.256C631.773 451.175 631.035 452.066 630.325 452.901L629.726 453.597L629.685 452.678C629.392 446.164 629.17 440.387 629.044 436.239C629.003 434.262 628.961 432.634 628.933 431.353C628.919 430.212 628.933 429.571 628.975 429.571C629.016 429.571 629.1 430.198 629.184 431.339C629.267 432.606 629.378 434.248 629.518 436.211C629.768 440.345 630.088 446.122 630.395 452.637L629.768 452.414C630.45 451.579 631.188 450.688 631.912 449.783C635.127 445.76 638.023 441.904 640.667 438.842L640.709 439.273C637.995 436.824 635.698 434.763 633.958 433.204C633.22 432.522 632.608 431.952 632.107 431.478C631.689 431.088 631.48 430.852 631.494 430.838Z" fill="#455A64"/>
<path d="M599.102 378.193C595.177 378.36 591.238 378.527 587.424 379.473C583.609 380.42 579.921 382.215 577.332 385.153C574.742 388.104 573.42 392.321 574.548 396.08C575.661 399.838 579.531 402.789 583.415 402.26C586.366 401.87 589.191 399.685 592.045 400.548C594.732 401.369 596.221 404.654 598.991 405.169C601.719 405.671 604.155 403.221 606.925 402.984C609.974 402.72 612.633 405.225 613.983 407.967C615.347 410.71 615.862 413.814 617.226 416.57C618.103 418.324 619.453 420.008 621.347 420.495C623.087 420.941 624.98 420.273 626.344 419.089C627.694 417.906 628.585 416.278 629.267 414.607C632.149 407.522 631.522 399.114 627.625 392.544C623.727 385.974 616.642 381.38 609.055 380.517" fill="#263238"/>
<path d="M638.134 395.203C638.009 395.244 637.633 393.908 636.658 391.945C635.684 389.983 633.986 387.435 631.508 385.194C629.016 382.953 626.316 381.519 624.27 380.754C622.223 379.974 620.859 379.738 620.887 379.612C620.901 379.557 621.235 379.584 621.862 379.668C622.488 379.738 623.379 379.932 624.451 380.28C626.594 380.949 629.434 382.355 632.009 384.665C634.57 386.99 636.269 389.676 637.146 391.737C637.591 392.767 637.883 393.63 638.009 394.242C638.12 394.855 638.176 395.189 638.134 395.203Z" fill="#E8505B"/>
<path d="M650.384 371.748C650.314 371.873 648.978 370.996 646.528 370.55C644.106 370.091 640.529 370.272 637.132 371.97C633.736 373.669 631.341 376.285 629.866 378.29C628.376 380.308 627.68 381.714 627.583 381.659C627.541 381.645 627.667 381.269 627.959 380.615C628.251 379.974 628.738 379.056 629.448 377.984C630.84 375.868 633.248 373.098 636.798 371.316C640.362 369.534 644.134 369.437 646.612 370.049C647.864 370.342 648.839 370.759 649.451 371.107C650.106 371.455 650.412 371.706 650.384 371.748Z" fill="#455A64"/>
<path d="M634.988 390.553C635.071 390.553 635.197 391.806 635.016 393.852C634.835 395.885 634.25 398.683 633.011 401.55C631.772 404.418 630.13 406.77 628.78 408.301C627.429 409.833 626.427 410.612 626.372 410.543C626.177 410.389 629.949 406.923 632.343 401.272C634.807 395.634 634.737 390.526 634.988 390.553Z" fill="#455A64"/>
<path d="M635.447 390.901C635.489 390.888 635.628 391.208 635.837 391.82C636.06 392.419 636.283 393.324 636.464 394.465C636.839 396.72 636.895 399.963 636.032 403.388C635.155 406.812 633.582 409.638 632.176 411.447C631.48 412.352 630.854 413.048 630.367 413.48C629.893 413.911 629.615 414.134 629.587 414.106C629.49 414.009 630.492 413.02 631.759 411.155C633.025 409.304 634.487 406.534 635.336 403.221C636.171 399.894 636.213 396.762 635.962 394.535C635.726 392.293 635.322 390.929 635.447 390.901Z" fill="#455A64"/>
<path d="M677.57 394.548C673.519 395.829 671.765 401.592 674.424 404.905C677.069 408.218 683.082 407.772 685.212 404.098C687.342 400.423 684.752 394.98 680.563 394.326" fill="#EBEBEB"/>
<path d="M696.39 367.196C691.754 368.657 689.736 375.269 692.784 379.069C695.819 382.87 702.723 382.355 705.159 378.151C707.609 373.947 704.63 367.697 699.828 366.931" fill="#EBEBEB"/>
<path d="M736.577 246.648C723.979 245.591 711.243 248.402 702.612 257.617C693.982 266.846 689.862 280.112 691.755 292.612C678.364 298.18 671.056 315.204 676.262 328.749C681.468 342.293 698.297 350.046 711.966 345.202C718.105 360.779 732.874 372.624 749.397 375.255C765.934 377.886 783.641 371.205 794.317 358.315C807.458 361.28 822.199 361.085 833.238 353.373C844.276 345.661 849.273 328.665 840.852 318.156C855.983 314.467 863.681 295.577 859.184 280.655C854.702 265.747 841.269 255.042 826.918 248.973C817.438 244.964 805.606 242.876 797.519 249.238C791.046 239.271 779.59 232.742 767.716 232.227C755.856 231.74 743.885 237.28 736.577 246.648Z" fill="#F5F5F5"/>
<path d="M736.577 246.648C736.577 246.648 736.828 246.314 737.343 245.674C737.844 245.02 738.665 244.115 739.792 242.974C742.061 240.746 745.764 237.614 751.43 235.164C754.241 233.953 757.54 232.909 761.257 232.38C764.974 231.879 769.122 231.852 773.437 232.756C777.752 233.605 782.221 235.345 786.466 238.032C790.684 240.746 794.679 244.421 797.755 249.112L797.393 249.057C800.651 246.523 804.896 245.076 809.309 244.964C813.722 244.797 818.273 245.632 822.728 247.108C827.182 248.597 831.581 250.63 835.868 253.135C840.156 255.641 844.332 258.648 848.062 262.336C851.821 265.969 855.092 270.34 857.472 275.282C858.614 277.774 859.56 280.404 860.159 283.147C860.66 285.903 860.952 288.756 860.716 291.61C860.354 297.303 858.6 303.08 855.273 308.022C853.588 310.458 851.626 312.782 849.162 314.55C846.726 316.346 843.942 317.696 840.949 318.476L841.144 317.919C842.954 320.23 844.234 322.958 844.889 325.867C845.543 328.776 845.571 331.825 845.111 334.804C844.165 340.776 841.186 346.469 836.787 350.854C832.333 355.238 826.389 357.953 820.222 359.317C814.014 360.681 807.527 360.695 801.152 359.874C798.827 359.595 796.53 359.136 794.275 358.649L794.637 358.523C783.084 372.388 764.166 378.61 747.602 375.241C739.305 373.571 731.705 369.66 725.524 364.412C719.344 359.164 714.555 352.524 711.688 345.313L712.106 345.508C704.185 348.237 695.527 346.845 688.734 343.058C681.871 339.314 676.735 332.883 675.064 325.728C673.366 318.573 674.744 311.223 677.89 305.307C681.05 299.364 686.033 294.742 691.685 292.362L691.532 292.626C690.683 286.836 691.142 281.184 692.395 276.089C693.717 271.008 695.819 266.457 698.394 262.629C699.661 260.694 701.109 258.996 702.556 257.409C704.06 255.877 705.591 254.485 707.22 253.358C710.421 251.019 713.762 249.558 716.824 248.528C723.005 246.537 728.086 246.356 731.454 246.342C734.823 246.412 736.577 246.648 736.577 246.648C736.577 246.648 736.132 246.648 735.268 246.593C734.405 246.537 733.111 246.509 731.427 246.509C728.072 246.579 723.005 246.788 716.88 248.82C713.846 249.85 710.547 251.326 707.387 253.65C705.786 254.764 704.283 256.17 702.793 257.687C701.373 259.26 699.939 260.958 698.701 262.879C696.153 266.679 694.093 271.189 692.799 276.228C691.574 281.268 691.128 286.849 691.991 292.571L692.019 292.765L691.838 292.849C686.312 295.201 681.426 299.739 678.336 305.586C675.259 311.404 673.923 318.629 675.593 325.617C677.236 332.591 682.261 338.868 688.998 342.529C695.666 346.218 704.129 347.568 711.841 344.896L712.147 344.784L712.259 345.077C715.084 352.176 719.817 358.718 725.914 363.897C732.011 369.075 739.514 372.931 747.685 374.559C763.985 377.872 782.652 371.72 794.025 358.078L794.164 357.911L794.387 357.953C796.628 358.426 798.897 358.885 801.208 359.164C807.527 359.971 813.93 359.943 820.041 358.607C826.096 357.271 831.943 354.598 836.258 350.339C840.545 346.079 843.455 340.497 844.373 334.692C845.334 328.902 844.123 322.805 840.573 318.364L840.239 317.947L840.768 317.807C843.664 317.056 846.364 315.747 848.73 314.007C851.125 312.281 853.046 310.026 854.702 307.646C857.945 302.83 859.685 297.164 860.047 291.568C860.27 288.77 859.992 285.972 859.505 283.272C858.934 280.585 858.001 277.996 856.888 275.546C854.549 270.674 851.333 266.359 847.617 262.768C843.942 259.121 839.808 256.142 835.562 253.636C831.316 251.145 826.946 249.112 822.533 247.623C818.134 246.161 813.638 245.326 809.309 245.479C804.98 245.577 800.846 246.983 797.672 249.432L797.463 249.6L797.324 249.377C794.303 244.741 790.364 241.094 786.216 238.408C782.026 235.749 777.613 233.995 773.34 233.146C769.066 232.227 764.96 232.255 761.285 232.715C757.596 233.216 754.325 234.232 751.513 235.415C745.876 237.809 742.173 240.886 739.876 243.071C738.735 244.185 737.899 245.076 737.384 245.716C736.869 246.342 736.577 246.648 736.577 246.648Z" fill="#263238"/>
<path d="M822.658 290.037C822.658 290.636 797.978 291.123 767.535 291.123C737.078 291.123 712.397 290.636 712.397 290.037C712.397 289.439 737.078 288.951 767.535 288.951C797.964 288.951 822.658 289.439 822.658 290.037Z" fill="#455A64"/>
<path d="M822.658 302.008C822.658 302.607 797.978 303.094 767.535 303.094C737.078 303.094 712.397 302.607 712.397 302.008C712.397 301.41 737.078 300.923 767.535 300.923C797.964 300.909 822.658 301.396 822.658 302.008Z" fill="#455A64"/>
<path d="M822.658 313.966C822.658 314.564 797.978 315.051 767.535 315.051C737.078 315.051 712.397 314.564 712.397 313.966C712.397 313.367 737.078 312.88 767.535 312.88C797.964 312.88 822.658 313.367 822.658 313.966Z" fill="#455A64"/>
<path d="M822.658 325.923C822.658 326.521 797.978 327.009 767.535 327.009C737.078 327.009 712.397 326.521 712.397 325.923C712.397 325.324 737.078 324.837 767.535 324.837C797.964 324.837 822.658 325.324 822.658 325.923Z" fill="#455A64"/>
</svg>
