<svg width="224" height="224" viewBox="0 0 224 224" fill="none" xmlns="http://www.w3.org/2000/svg">
<path d="M182.415 158.782H182.479C192.656 158.782 200.905 166.956 200.904 177.041C200.904 187.125 192.654 195.299 182.477 195.299C179.376 195.299 176.455 194.541 173.891 193.201C171.327 194.541 168.405 195.299 165.304 195.299C161.226 195.299 160 194.5 159 193.201L159.649 158.981V139.524C161.059 139.181 162.534 139 164.051 139C174.228 139 182.479 147.175 182.479 157.26C182.479 157.772 182.457 158.28 182.415 158.782Z" fill="#E0E0E0"/>
<path d="M63.9251 140.524V166.826L65.7968 191.333C70.1391 190.769 63.2991 194.913 63.9243 194.933V195.423C62.1131 195.992 60.1817 196.299 58.1764 196.299C55.0256 196.299 52.057 195.541 49.4511 194.201C46.846 195.541 43.8765 196.299 40.7258 196.299C30.3833 196.299 22 188.125 22 178.041C22 167.956 30.3841 159.781 40.7258 159.781H40.7902C40.748 159.279 40.7258 158.772 40.7258 158.259C40.7258 148.175 49.1098 140 59.4515 140C60.9931 140 62.4917 140.181 63.9251 140.524Z" fill="#E0E0E0"/>
<path d="M75.5964 154.901H148.403V171.599H75.5964V154.901Z" fill="#E0E0E0"/>
<path d="M158.973 29.0211H65.0283C63.8199 29.0211 62.8408 30.0002 62.8408 31.2086V192.792C62.8408 194.001 63.8199 194.98 65.0283 194.98H158.973C160.181 194.98 161.16 194.001 161.16 192.792V31.2086C161.16 30.0002 160.18 29.0211 158.973 29.0211ZM156.785 190.604H67.2158V33.3961H156.785V190.604Z" fill="#999999"/>
<path d="M75.5964 173.786H148.403C149.611 173.786 150.59 172.807 150.59 171.599V52.4011C150.59 51.1927 149.611 50.2136 148.403 50.2136H75.5964C74.3881 50.2136 73.4089 51.1927 73.4089 52.4011V171.6C73.4089 172.807 74.3889 173.786 75.5964 173.786ZM77.7839 54.5886H146.215V169.412H77.7839V54.5886Z" fill="#999999"/>
<path d="M121.551 184.333H102.448C101.24 184.333 100.261 183.354 100.261 182.145C100.261 180.937 101.24 179.958 102.448 179.958H121.551C122.759 179.958 123.738 180.937 123.738 182.145C123.738 183.354 122.759 184.333 121.551 184.333Z" fill="#E8505B"/>
<path d="M119.676 43.7299H104.323C103.114 43.7299 102.135 42.7508 102.135 41.5424C102.135 40.334 103.114 39.3549 104.323 39.3549H119.676C120.885 39.3549 121.864 40.334 121.864 41.5424C121.864 42.7508 120.885 43.7299 119.676 43.7299Z" fill="#E0E0E0"/>
<path d="M80.8533 107.793C80.8533 107.172 80.8881 106.56 80.9523 105.957C81.8688 114.559 89.1468 121.259 97.9917 121.259C106.836 121.259 114.115 114.558 115.031 105.957C115.096 106.56 115.13 107.173 115.13 107.793C115.13 117.258 107.457 124.932 97.9913 124.932C94.4204 124.932 91.1055 123.839 88.3603 121.97L88.3607 121.971L81.2199 124.519L86.2586 120.28C82.9335 117.154 80.8533 112.718 80.8533 107.793Z" fill="#E0E0E0"/>
<path d="M143.607 81.9921C143.607 81.3715 143.573 80.7591 143.508 80.1559C142.592 88.7577 135.314 95.4582 126.469 95.4582C117.624 95.4582 110.346 88.7574 109.43 80.1559C109.365 80.7595 109.33 81.3718 109.33 81.9921C109.33 91.4575 117.004 99.1308 126.469 99.1308C130.04 99.1308 133.355 98.0378 136.1 96.1692L136.099 96.1699L143.24 98.7178L138.201 94.4792C141.527 91.3527 143.607 86.9165 143.607 81.9921Z" fill="#E0E0E0"/>
<path d="M97.9921 89.8013C88.0713 89.8013 80 97.8726 80 107.793C80 111.248 80.9759 114.586 82.8268 117.478L80.4168 124.232C80.3062 124.543 80.3837 124.889 80.6172 125.122C80.8503 125.355 81.1968 125.433 81.5074 125.322L88.2461 122.918C91.1527 124.795 94.5124 125.785 97.9921 125.785C107.913 125.785 115.984 117.714 115.984 107.793C115.984 97.8723 107.913 89.8013 97.9921 89.8013ZM97.9921 124.078C94.7103 124.078 91.546 123.106 88.8418 121.265C88.6984 121.168 88.5308 121.117 88.3618 121.117C88.2652 121.117 88.1683 121.134 88.0751 121.167L82.6295 123.11L84.5769 117.651C84.6684 117.396 84.6322 117.112 84.4806 116.887C82.666 114.197 81.7068 111.052 81.7068 107.793C81.7068 98.8137 89.0121 91.5081 97.9921 91.5081C106.972 91.5081 114.277 98.8137 114.277 107.793C114.277 116.773 106.972 124.078 97.9921 124.078Z" fill="#999999"/>
<path d="M141.634 91.6767C143.485 88.7851 144.461 85.4463 144.461 81.9921C144.461 72.0713 136.389 64 126.469 64C116.548 64 108.477 72.0713 108.477 81.9921C108.477 91.9129 116.548 99.9839 126.469 99.9839C129.948 99.9839 133.308 98.994 136.214 97.1168L142.953 99.5213C143.263 99.6323 143.61 99.5545 143.843 99.321C144.077 99.0878 144.154 98.7414 144.044 98.4307L141.634 91.6767ZM136.386 95.366C136.13 95.2742 135.844 95.3111 135.619 95.4643C132.914 97.3049 129.751 98.2775 126.469 98.2775C117.489 98.2775 110.183 90.9721 110.183 81.9925C110.183 73.0128 117.489 65.7071 126.469 65.7071C135.449 65.7071 142.754 73.0128 142.754 81.9925C142.754 85.251 141.795 88.3956 139.98 91.0865C139.829 91.3114 139.792 91.5951 139.884 91.8504L141.831 97.3094L136.386 95.366Z" fill="#999999"/>
<path d="M124.022 88.6478C123.796 88.6478 123.579 88.5581 123.419 88.398L117.743 82.7219C117.409 82.3888 117.409 81.8484 117.743 81.5152C118.076 81.1817 118.616 81.1817 118.949 81.5152L124.022 86.5878L133.262 77.3473C133.596 77.0138 134.136 77.0138 134.469 77.3473C134.803 77.6805 134.803 78.2208 134.469 78.554L124.625 88.398C124.465 88.5577 124.248 88.6478 124.022 88.6478Z" fill="#E8505B"/>
<path d="M99.0265 102.985H90.2472C89.7758 102.985 89.3938 102.603 89.3938 102.132C89.3938 101.66 89.7758 101.278 90.2472 101.278H99.0268C99.4982 101.278 99.8802 101.66 99.8802 102.132C99.8799 102.603 99.4979 102.985 99.0265 102.985Z" fill="#E8505B"/>
<path d="M105.105 108.483H90.2472C89.7758 108.483 89.3938 108.101 89.3938 107.63C89.3938 107.158 89.7758 106.776 90.2472 106.776H105.105C105.576 106.776 105.958 107.158 105.958 107.63C105.958 108.101 105.576 108.483 105.105 108.483Z" fill="#E8505B"/>
<path d="M105.105 113.981H90.2472C89.7758 113.981 89.3938 113.599 89.3938 113.127C89.3938 112.656 89.7758 112.274 90.2472 112.274H105.105C105.576 112.274 105.958 112.656 105.958 113.127C105.958 113.599 105.576 113.981 105.105 113.981Z" fill="#E8505B"/>
</svg>
