<svg width="224" height="224" viewBox="0 0 224 224" fill="none" xmlns="http://www.w3.org/2000/svg">
<path d="M197.479 149.775C197.458 149.775 197.437 149.775 197.415 149.775C197.457 149.274 197.479 148.766 197.479 148.254C197.479 138.169 189.228 129.994 179.051 129.994C177.534 129.994 176.059 130.175 174.649 130.518V149.975C175.875 151.02 176.7 153.277 177.062 154.368C177.825 156.663 178.059 159.096 178.179 161.51C178.313 164.185 178.315 166.893 177.726 169.506C177.122 172.192 175.681 173.882 174.337 176.127C172.969 178.414 171.272 180.462 169.187 182.147C171.812 185.549 176.226 186.293 180.305 186.293C183.405 186.293 186.327 185.535 188.891 184.194C191.455 185.535 194.377 186.293 197.477 186.293C207.654 186.293 215.904 178.119 215.904 168.034C215.906 157.95 207.656 149.775 197.479 149.775Z" fill="#E0E0E0"/>
<path d="M49.9251 129.495V155.796L51.7968 180.304C56.1391 179.74 49.2991 183.884 49.9243 183.904V184.394C48.1131 184.963 46.1817 185.27 44.1764 185.27C41.0256 185.27 38.057 184.512 35.4511 183.171C32.8459 184.512 29.8765 185.27 26.7257 185.27C16.3833 185.27 8 177.096 8 167.012C8 156.927 16.3841 148.752 26.7257 148.752H26.7902C26.748 148.25 26.7257 147.743 26.7257 147.23C26.7257 137.146 35.1098 128.971 45.4515 128.971C46.9931 128.971 48.4917 129.152 49.9251 129.495Z" fill="#E0E0E0"/>
<path d="M173.979 60.1014C173.979 59.0336 173.929 57.9767 173.852 56.9248H49.5266C49.4513 57.9767 49.4011 59.0336 49.4011 60.1014V72.497H173.979V60.1014Z" fill="#E0E0E0"/>
<path d="M48.4138 68.9173C47.2054 68.9173 46.2263 67.9381 46.2263 66.7298V48.9375C46.2263 42.9061 51.1324 38 57.1638 38H89.2028C93.1727 38 96.8363 40.156 98.7639 43.6263L105.014 54.8753C105.601 55.9314 105.22 57.2631 104.164 57.8503C103.109 58.4356 101.776 58.0568 101.19 57.0006L94.9393 45.7508C93.7834 43.6683 91.5846 42.375 89.2028 42.375H57.1638C53.5448 42.375 50.6013 45.3185 50.6013 48.9375V66.7298C50.6013 67.9373 49.6222 68.9173 48.4138 68.9173Z" fill="#999999"/>
<path d="M163.899 53.75H60.6787C52.71 53.75 46.2263 60.2329 46.2263 68.2024V171.423C46.2263 179.392 52.7092 185.876 60.6787 185.876H163.9C171.869 185.876 178.352 179.392 178.352 171.423V68.2024C178.352 60.2329 171.869 53.75 163.899 53.75ZM173.977 171.423C173.977 176.979 169.456 181.501 163.899 181.501H60.6787C55.1215 181.501 50.6013 176.98 50.6013 171.423V68.2024C50.6013 62.6461 55.1215 58.125 60.6787 58.125H163.9C169.457 58.125 173.977 62.6461 173.977 68.2024V171.423Z" fill="#999999"/>
<path d="M89.5388 150.471H135.039C136.247 150.471 137.227 149.492 137.227 148.284C137.227 147.075 136.247 146.096 135.039 146.096H89.5388C88.3304 146.096 87.3513 147.075 87.3513 148.284C87.3513 149.492 88.3304 150.471 89.5388 150.471Z" fill="#999999"/>
<path d="M145.771 160.886H78.8069C77.5985 160.886 76.6194 161.865 76.6194 163.074C76.6194 164.282 77.5985 165.261 78.8069 165.261H145.77C146.978 165.261 147.957 164.282 147.957 163.074C147.958 161.865 146.978 160.886 145.771 160.886Z" fill="#999999"/>
<path d="M128.933 119.812C121.719 119.812 115.169 115.546 112.2 108.93H85.0436C84.2387 108.93 83.4443 108.658 82.8039 108.166L77.739 104.267C76.8308 103.568 76.2888 102.463 76.2888 101.312C76.2888 100.161 76.8308 99.0556 77.739 98.3571L82.8032 94.4576C83.4429 93.9652 84.2387 93.6939 85.0443 93.6939H112.2C115.398 86.568 122.719 82.2286 130.465 82.8762C139.678 83.6484 147.067 91.5529 147.284 100.87C147.401 105.89 145.546 110.635 142.06 114.232C138.573 117.83 133.91 119.812 128.933 119.812ZM85.0443 97.2355C85.0056 97.2355 84.9683 97.249 84.9374 97.2724L79.8732 101.171C79.8296 101.204 79.8043 101.257 79.8043 101.311C79.8043 101.366 79.8296 101.418 79.8732 101.452L84.9381 105.351C84.969 105.375 85.0056 105.387 85.0436 105.387H112.33C113.641 105.387 114.827 106.159 115.351 107.355C117.727 112.77 123.058 116.268 128.932 116.268C132.956 116.268 136.725 114.666 139.545 111.755C142.364 108.847 143.865 105.01 143.77 100.951C143.595 93.4183 137.622 87.0285 130.174 86.4037C123.863 85.873 117.904 89.4395 115.348 95.2738C114.828 96.464 113.642 97.2341 112.329 97.2341H85.0443V97.2355ZM135.134 110.051C132.471 110.051 130.304 107.866 130.304 105.182V97.4403C130.304 94.7559 132.471 92.5717 135.134 92.5717C137.798 92.5717 139.964 94.7552 139.964 97.4403V105.182C139.964 107.867 137.798 110.051 135.134 110.051ZM135.134 96.1147C134.41 96.1147 133.819 96.7091 133.819 97.441V105.183C133.819 105.914 134.41 106.509 135.134 106.509C135.859 106.509 136.45 105.915 136.45 105.183V97.441C136.45 96.7099 135.859 96.1147 135.134 96.1147Z" fill="#E8505B"/>
</svg>
