<svg width="224" height="184" viewBox="0 0 224 184" fill="none" xmlns="http://www.w3.org/2000/svg">
<path d="M197.19 141.963C197.169 141.963 197.148 141.963 197.126 141.963C197.168 141.462 197.19 140.954 197.19 140.442C197.19 130.357 188.939 122.182 178.762 122.182C177.245 122.182 175.77 122.363 174.36 122.706V142.163C175.586 143.208 176.411 145.465 176.773 146.556C177.536 148.851 177.77 151.284 177.89 153.698C178.024 156.373 178.026 159.081 177.437 161.694C176.833 164.38 175.392 166.07 174.048 168.315C172.68 170.602 170.983 172.65 168.898 174.335C171.523 177.737 175.937 178.481 180.016 178.481C183.116 178.481 186.038 177.723 188.602 176.382C191.166 177.723 194.088 178.481 197.188 178.481C207.365 178.481 215.615 170.307 215.615 160.222C215.617 150.138 207.367 141.963 197.19 141.963Z" fill="#E0E0E0"/>
<path d="M49.6363 121.683V147.984L51.508 172.492C55.8503 171.928 49.0103 176.072 49.6355 176.092V176.582C47.8243 177.151 45.8929 177.458 43.8876 177.458C40.7368 177.458 37.7682 176.7 35.1623 175.359C32.5571 176.7 29.5877 177.458 26.4369 177.458C16.0945 177.458 7.71118 169.284 7.71118 159.2C7.71118 149.115 16.0953 140.94 26.4369 140.94H26.5014C26.4592 140.438 26.4369 139.931 26.4369 139.418C26.4369 129.334 34.821 121.159 45.1627 121.159C46.7043 121.159 48.2029 121.34 49.6363 121.683Z" fill="#E0E0E0"/>
<path d="M173.69 52.2889C173.69 51.2211 173.64 50.1642 173.563 49.1123H49.2378C49.1625 50.1642 49.1123 51.2211 49.1123 52.2889V64.6845H173.69V52.2889Z" fill="#E0E0E0"/>
<path d="M48.125 61.1048C46.9166 61.1048 45.9375 60.1256 45.9375 58.9173V41.125C45.9375 35.0936 50.8436 30.1875 56.875 30.1875H88.914C92.8839 30.1875 96.5475 32.3435 98.4751 35.8138L104.725 47.0627C105.312 48.1189 104.931 49.4506 103.875 50.0378C102.82 50.6231 101.487 50.2443 100.901 49.1881L94.6505 37.9383C93.4946 35.8558 91.2958 34.5625 88.914 34.5625H56.875C53.256 34.5625 50.3125 37.506 50.3125 41.125V58.9173C50.3125 60.1248 49.3334 61.1048 48.125 61.1048Z" fill="#999999"/>
<path d="M163.61 45.9375H60.3899C52.4212 45.9375 45.9375 52.4204 45.9375 60.3899V163.611C45.9375 171.58 52.4204 178.063 60.3899 178.063H163.611C171.58 178.063 178.063 171.58 178.063 163.611V60.3899C178.062 52.4204 171.58 45.9375 163.61 45.9375ZM173.688 163.61C173.688 169.166 169.167 173.688 163.61 173.688H60.3899C54.8327 173.688 50.3125 169.167 50.3125 163.61V60.3899C50.3125 54.8336 54.8327 50.3125 60.3899 50.3125H163.611C169.168 50.3125 173.688 54.8336 173.688 60.3899V163.61H173.688Z" fill="#999999"/>
<path d="M89.25 142.659H134.75C135.958 142.659 136.938 141.68 136.938 140.472C136.938 139.263 135.958 138.284 134.75 138.284H89.25C88.0416 138.284 87.0625 139.263 87.0625 140.472C87.0625 141.68 88.0416 142.659 89.25 142.659Z" fill="#999999"/>
<path d="M145.482 153.074H78.5181C77.3097 153.074 76.3306 154.053 76.3306 155.262C76.3306 156.47 77.3097 157.449 78.5181 157.449H145.481C146.689 157.449 147.668 156.47 147.668 155.262C147.669 154.053 146.689 153.074 145.482 153.074Z" fill="#999999"/>
<path d="M128.644 112C121.43 112 114.88 107.734 111.911 101.118H84.7548C83.9499 101.118 83.1555 100.846 82.5151 100.354L77.4502 96.4547C76.542 95.7554 76 94.6509 76 93.4996C76 92.3483 76.542 91.2431 77.4502 90.5446L82.5144 86.6451C83.1541 86.1527 83.9499 85.8814 84.7555 85.8814H111.911C115.109 78.7555 122.43 74.4161 130.176 75.0637C139.389 75.8359 146.778 83.7404 146.995 93.0575C147.112 98.0778 145.257 102.823 141.771 106.42C138.284 110.018 133.621 112 128.644 112ZM84.7555 89.423C84.7168 89.423 84.6795 89.4365 84.6486 89.4599L79.5844 93.3586C79.5408 93.3919 79.5155 93.4443 79.5155 93.4989C79.5155 93.5534 79.5408 93.6059 79.5844 93.6392L84.6493 97.5386C84.6802 97.5627 84.7168 97.5747 84.7548 97.5747H112.041C113.352 97.5747 114.538 98.347 115.062 99.5422C117.438 104.958 122.769 108.456 128.643 108.456C132.667 108.456 136.436 106.854 139.256 103.943C142.075 101.035 143.576 97.1978 143.481 93.1383C143.306 85.6058 137.333 79.216 129.885 78.5912C123.574 78.0605 117.615 81.627 115.059 87.4613C114.539 88.6515 113.353 89.4216 112.04 89.4216H84.7555V89.423ZM134.845 102.239C132.182 102.239 130.015 100.054 130.015 97.37V89.6278C130.015 86.9434 132.182 84.7592 134.845 84.7592C137.509 84.7592 139.675 86.9427 139.675 89.6278V97.37C139.675 100.055 137.509 102.239 134.845 102.239ZM134.845 88.3022C134.121 88.3022 133.53 88.8966 133.53 89.6285V97.3707C133.53 98.1019 134.121 98.697 134.845 98.697C135.57 98.697 136.161 98.1026 136.161 97.3707V89.6285C136.161 88.8974 135.57 88.3022 134.845 88.3022Z" fill="#E8505B"/>
</svg>
