<svg width="224" height="224" viewBox="0 0 224 224" fill="none" xmlns="http://www.w3.org/2000/svg">
<path d="M188.393 176.909C188.374 176.909 188.355 176.909 188.336 176.909C188.373 176.459 188.393 176.005 188.393 175.546C188.393 166.519 181.046 159.2 171.983 159.2C170.633 159.2 169.319 159.362 168.063 159.669V177.087C169.155 178.023 169.89 180.043 170.212 181.02C170.892 183.075 171.1 185.253 171.207 187.414C171.326 189.808 171.328 192.232 170.803 194.572C170.265 196.976 168.982 198.489 167.786 200.499C166.567 202.547 165.056 204.38 163.2 205.888C165.537 208.933 169.468 209.6 173.099 209.6C175.86 209.6 178.463 208.921 180.745 207.721C183.029 208.921 185.63 209.6 188.391 209.6C197.454 209.6 204.8 202.282 204.8 193.254C204.801 184.227 197.455 176.909 188.393 176.909Z" fill="#E0E0E0"/>
<path d="M53.5571 208.226C49.1668 207.551 45.166 204.605 43.3514 200.572C41.536 196.54 42.0206 191.542 44.6773 188.001C47.2627 184.555 51.135 183.274 55.2 183.215V159.669C53.9418 159.362 52.6264 159.2 51.2733 159.2C42.1958 159.2 34.8366 166.519 34.8366 175.546C34.8366 176.005 34.8562 176.459 34.8932 176.908C34.8743 176.908 34.8555 176.908 34.8366 176.908C25.7592 176.908 18.4 184.226 18.4 193.255C18.4 202.282 25.7585 209.6 34.8366 209.6C37.6023 209.6 40.2087 208.921 42.4953 207.721C44.7827 208.921 47.3884 209.6 50.154 209.6C51.9142 209.6 53.6095 209.325 55.1993 208.815V208.377C54.6505 208.359 54.1017 208.31 53.5571 208.226Z" fill="#E0E0E0"/>
<path d="M157.59 89.4049C157.59 88.4704 157.553 87.5455 157.497 86.625H66.5017C66.4465 87.5455 66.4098 88.4704 66.4098 89.4049V100.252H157.59V89.4049Z" fill="#E0E0E0"/>
<path d="M139.154 33.8424H112V16.2523H139.154C140.286 16.2523 141.203 17.1701 141.203 18.3015V31.7931C141.203 32.9254 140.285 33.8424 139.154 33.8424Z" fill="#E8505B"/>
<path d="M45.0415 201.852H178.958V207.748H45.0415V201.852Z" fill="#E0E0E0"/>
<path d="M55.559 169.815H76.6543V183.453H55.559V169.815Z" fill="#E0E0E0"/>
<path d="M101.452 169.815H122.547V183.453H101.452V169.815Z" fill="#E0E0E0"/>
<path d="M147.346 169.815H168.441V183.453H147.346V169.815Z" fill="#E0E0E0"/>
<path d="M55.559 124.601H76.6543V138.239H55.559V124.601Z" fill="#E0E0E0"/>
<path d="M101.452 124.601H122.547V138.239H101.452V124.601Z" fill="#E0E0E0"/>
<path d="M147.346 124.601H168.441V138.239H147.346V124.601Z" fill="#E0E0E0"/>
<path d="M182.267 111.164H41.7331C38.7196 111.164 36.2775 108.721 36.2775 105.709C36.2775 102.695 38.7205 100.253 41.7331 100.253H182.267C185.28 100.253 187.722 102.696 187.722 105.709C187.722 108.721 185.28 111.164 182.267 111.164Z" fill="#E0E0E0"/>
<path d="M182.267 98.0648H41.7331C37.5182 98.0648 34.09 101.493 34.09 105.708C34.09 109.923 37.5182 113.351 41.7331 113.351H182.267C186.482 113.351 189.91 109.923 189.91 105.708C189.91 101.493 186.482 98.0648 182.267 98.0648ZM182.267 108.977H41.7331C39.9306 108.977 38.465 107.51 38.465 105.709C38.465 103.906 39.9315 102.441 41.7331 102.441H182.267C184.069 102.441 185.535 103.907 185.535 105.709C185.535 107.51 184.069 108.977 182.267 108.977Z" fill="#999999"/>
<path d="M174.372 193.768H49.6283C45.8929 193.768 42.854 196.807 42.854 200.541V207.747C42.854 208.955 43.8331 209.934 45.0415 209.934H178.958C180.167 209.934 181.146 208.955 181.146 207.747V200.541C181.146 196.807 178.107 193.768 174.372 193.768ZM176.771 205.56H47.229V200.542C47.229 199.219 48.3053 198.144 49.6283 198.144H174.372C175.695 198.144 176.771 199.219 176.771 200.542V205.56Z" fill="#999999"/>
<path d="M50.1541 186.512V189.458C50.1541 190.666 51.1332 191.645 52.3416 191.645C53.5499 191.645 54.5291 190.666 54.5291 189.458V186.512C54.5291 186.032 54.9193 185.641 55.3997 185.641H55.5598H76.6552H76.8153C77.2948 185.641 77.6851 186.031 77.6851 186.512V189.458C77.6851 190.666 78.6642 191.645 79.8726 191.645C81.081 191.645 82.0601 190.666 82.0601 189.458V186.512C82.0601 184.337 80.731 182.469 78.8427 181.675V126.38C80.731 125.585 82.0601 123.717 82.0601 121.543V118.596C82.0601 117.387 81.081 116.408 79.8726 116.408C78.6642 116.408 77.6851 117.387 77.6851 118.596V121.543C77.6851 122.022 77.2948 122.413 76.8153 122.413H76.6552H55.5589H55.3988C54.9193 122.413 54.5282 122.022 54.5282 121.543V118.596C54.5282 117.387 53.5491 116.408 52.3407 116.408C51.1323 116.408 50.1532 117.387 50.1532 118.596V121.543C50.1532 123.716 51.4823 125.584 53.3706 126.379V181.674C51.4832 182.469 50.1541 184.337 50.1541 186.512ZM74.4668 126.788V181.266H57.7465V126.788H74.4668Z" fill="#999999"/>
<path d="M141.941 186.512V189.458C141.941 190.666 142.92 191.645 144.128 191.645C145.337 191.645 146.316 190.666 146.316 189.458V186.512C146.316 186.032 146.706 185.641 147.185 185.641H147.346H168.441H168.601C169.081 185.641 169.471 186.031 169.471 186.512V189.458C169.471 190.666 170.45 191.645 171.658 191.645C172.867 191.645 173.846 190.666 173.846 189.458V186.512C173.846 184.338 172.517 182.469 170.628 181.674V126.38C172.517 125.585 173.846 123.716 173.846 121.544V118.597C173.846 117.388 172.867 116.409 171.658 116.409C170.45 116.409 169.471 117.388 169.471 118.597V121.544C169.471 122.023 169.081 122.413 168.601 122.413H168.441H147.346H147.185C146.706 122.413 146.316 122.023 146.316 121.544V118.597C146.316 117.388 145.337 116.409 144.128 116.409C142.92 116.409 141.941 117.388 141.941 118.597V121.544C141.941 123.717 143.27 125.586 145.158 126.381V181.675C143.27 182.469 141.941 184.337 141.941 186.512ZM166.253 126.788V181.266H149.533V126.788H166.253Z" fill="#999999"/>
<path d="M96.0479 186.512V189.458C96.0479 190.666 97.027 191.645 98.2354 191.645C99.4437 191.645 100.423 190.666 100.423 189.458V186.512C100.423 186.032 100.813 185.641 101.293 185.641H101.453H122.548H122.708C123.188 185.641 123.578 186.031 123.578 186.512V189.458C123.578 190.666 124.557 191.645 125.765 191.645C126.974 191.645 127.953 190.666 127.953 189.458V186.512C127.953 184.338 126.624 182.469 124.736 181.674V126.38C126.624 125.585 127.953 123.716 127.953 121.544V118.597C127.953 117.388 126.974 116.409 125.765 116.409C124.557 116.409 123.578 117.388 123.578 118.597V121.544C123.578 122.023 123.188 122.413 122.708 122.413H122.548H101.453H101.293C100.813 122.413 100.423 122.023 100.423 121.544V118.597C100.423 117.388 99.4437 116.409 98.2354 116.409C97.027 116.409 96.0479 117.388 96.0479 118.597V121.544C96.0479 123.717 97.377 125.585 99.2652 126.38V181.674C97.377 182.469 96.0479 184.337 96.0479 186.512ZM120.361 126.788V181.266H103.64V126.788H120.361Z" fill="#999999"/>
<path d="M66.1071 178.822C67.3154 178.822 68.2946 177.843 68.2946 176.635V131.14C68.2946 129.931 67.3154 128.952 66.1071 128.952C64.8987 128.952 63.9196 129.931 63.9196 131.14V176.635C63.9196 177.843 64.8987 178.822 66.1071 178.822Z" fill="#999999"/>
<path d="M112 178.822C113.208 178.822 114.188 177.843 114.188 176.635V131.14C114.188 129.931 113.208 128.952 112 128.952C110.792 128.952 109.812 129.931 109.812 131.14V176.635C109.812 177.843 110.792 178.822 112 178.822Z" fill="#999999"/>
<path d="M157.894 178.822C159.102 178.822 160.081 177.843 160.081 176.635V131.14C160.081 129.931 159.102 128.952 157.894 128.952C156.685 128.952 155.706 129.931 155.706 131.14V176.635C155.706 177.843 156.685 178.822 157.894 178.822Z" fill="#999999"/>
<path d="M66.4098 94.5648C67.6182 94.5648 68.5973 93.5856 68.5973 92.3773V89.4049C68.5973 65.4728 88.0678 46.0023 112 46.0023C135.932 46.0023 155.403 65.4728 155.403 89.4049V92.3773C155.403 93.5856 156.382 94.5648 157.59 94.5648C158.798 94.5648 159.778 93.5856 159.778 92.3773V89.4049C159.778 63.7936 139.52 42.8304 114.187 41.6824V16.2523C114.187 15.0439 113.208 14.0648 112 14.0648C110.792 14.0648 109.812 15.0439 109.812 16.2523V41.6824C84.4794 42.8304 64.2223 63.7936 64.2223 89.4049V92.3773C64.2223 93.5856 65.2014 94.5648 66.4098 94.5648Z" fill="#999999"/>
</svg>
