<svg width="40" height="40" viewBox="0 0 40 40" fill="none" xmlns="http://www.w3.org/2000/svg">
<path d="M32.8455 39.3152C24.2905 40.2283 15.7095 40.2283 7.15454 39.3152C3.74329 38.9511 1.04889 36.2567 0.684814 32.8452C-0.228271 24.2902 -0.228271 15.7095 0.684814 7.15454C1.04889 3.74329 3.74329 1.04889 7.15454 0.684814C15.7095 -0.228271 24.2902 -0.228271 32.8452 0.684814C36.2567 1.04889 38.9511 3.74329 39.3152 7.15454C40.2283 15.7095 40.2283 24.2902 39.3152 32.8452C38.9511 36.2567 36.257 38.9511 32.8455 39.3152Z" fill="url(#paint0_linear)"/>
<path d="M37.1399 8.60138C36.817 5.57434 34.4262 3.18329 31.3989 2.86011C23.8073 2.05017 16.1932 2.05017 8.60165 2.86011C5.57462 3.18329 3.18356 5.57434 2.86038 8.60138C2.05045 16.1929 2.05045 23.8071 2.86038 31.3983C3.18356 34.4257 5.57462 36.8167 8.60165 37.1396C16.1932 37.9498 23.8073 37.9498 31.3986 37.1396C34.4259 36.8167 36.817 34.4257 37.1399 31.3983C37.9501 23.8071 37.9501 16.1929 37.1399 8.60138V8.60138Z" fill="url(#paint1_linear)"/>
<path d="M0.599609 32.016C0.627075 32.2925 0.655457 32.569 0.685059 32.8455C1.04913 36.2567 3.74353 38.9511 7.15509 39.3152C15.7101 40.2283 24.2907 40.2283 32.8457 39.3152C36.2573 38.9511 38.9514 36.2567 39.3154 32.8455C39.345 32.569 39.3734 32.2925 39.4012 32.016H0.599609Z" fill="url(#paint2_linear)"/>
<path d="M38.8844 34.6539L13.0714 8.84064C12.4949 8.08838 11.588 7.60284 10.5671 7.60284C8.82581 7.60284 7.41406 9.01428 7.41406 10.7556C7.41406 11.7767 7.8999 12.6837 8.65216 13.2599L34.3754 38.9835C36.4546 38.2916 38.1117 36.694 38.8844 34.6539V34.6539Z" fill="url(#paint3_linear)"/>
<path d="M13.2149 15.9769H7.91797V32.3972L15.4338 39.913C21.2389 40.1328 27.0479 39.9341 32.845 39.3152C33.8585 39.2072 34.8079 38.8919 35.6526 38.4146L13.2149 15.9769Z" fill="url(#paint4_linear)"/>
<path d="M31.2039 17.3523C30.2349 16.29 28.84 15.6235 27.2894 15.6235C24.8367 15.6235 23.2537 16.485 22.3116 17.2849L21.2737 15.9769H16.3931V32.3972L23.9315 39.9356C26.9045 39.8389 29.8763 39.632 32.8454 39.3152C36.257 38.9511 38.9511 36.2567 39.3151 32.8455C39.5587 30.5646 39.7366 28.2819 39.8501 25.9985L31.2039 17.3523Z" fill="url(#paint5_linear)"/>
<path d="M7.91895 15.9769H13.2156V32.3972H7.91895V15.9769Z" fill="white"/>
<path d="M27.2899 15.6235C23.4083 15.6235 21.7033 17.7808 21.2742 18.4375V15.9769H16.3936V32.3972H21.6905V24.1492C21.6905 21.7657 22.7876 19.9118 24.8686 19.9118C26.9493 19.9118 27.2899 22.2195 27.2899 25.0574V32.3972H32.5868V20.9204C32.5868 17.995 30.2153 15.6235 27.2899 15.6235V15.6235Z" fill="white"/>
<path d="M13.7199 10.7559C13.7199 12.4973 12.3085 13.9087 10.5671 13.9087C8.82581 13.9087 7.41406 12.4973 7.41406 10.7559C7.41406 9.01459 8.82581 7.60284 10.5671 7.60284C12.3085 7.60284 13.7199 9.01459 13.7199 10.7559Z" fill="white"/>
<defs>
<linearGradient id="paint0_linear" x1="13.2808" y1="5.62392" x2="23.3979" y2="27.2699" gradientUnits="userSpaceOnUse">
<stop stop-color="#0077B5"/>
<stop offset="1" stop-color="#0066B2"/>
</linearGradient>
<linearGradient id="paint1_linear" x1="28.4598" y1="24.538" x2="-29.6549" y2="-6.63689" gradientUnits="userSpaceOnUse">
<stop stop-color="#0066B2" stop-opacity="0"/>
<stop offset="1" stop-color="#07485E"/>
</linearGradient>
<linearGradient id="paint2_linear" x1="20.0003" y1="32.4865" x2="20.0003" y2="40.8464" gradientUnits="userSpaceOnUse">
<stop stop-color="#0066B2" stop-opacity="0"/>
<stop offset="1" stop-color="#07485E"/>
</linearGradient>
<linearGradient id="paint3_linear" x1="21.2" y1="21.3887" x2="6.24394" y2="6.43266" gradientUnits="userSpaceOnUse">
<stop stop-color="#0066B2" stop-opacity="0"/>
<stop offset="1" stop-color="#07485E"/>
</linearGradient>
<linearGradient id="paint4_linear" x1="29.9803" y1="35.2837" x2="-0.137354" y2="21.166" gradientUnits="userSpaceOnUse">
<stop stop-color="#0066B2" stop-opacity="0"/>
<stop offset="1" stop-color="#07485E"/>
</linearGradient>
<linearGradient id="paint5_linear" x1="37.307" y1="38.3792" x2="16.3257" y2="17.3979" gradientUnits="userSpaceOnUse">
<stop stop-color="#0066B2" stop-opacity="0"/>
<stop offset="1" stop-color="#07485E"/>
</linearGradient>
</defs>
</svg>
