<svg xmlns="http://www.w3.org/2000/svg" width="236" height="76" fill="none" viewBox="0 0 236 76">
    <rect width="230" height="70" fill="#000" filter="url(#a)" rx="5"/>
    <path fill="#fff" d="M81.758 40.32h6.567v8.96c-1.074.35-2.108.598-3.1.744-.985.147-2.051.22-3.199.22-2.701 0-4.785-.797-6.25-2.392-1.465-1.604-2.197-3.862-2.197-6.775 0-2.873.826-5.12 2.478-6.739 1.652-1.627 3.927-2.441 6.824-2.441 1.864 0 3.63.358 5.298 1.074l-1.026 2.43c-1.448-.668-2.897-1.002-4.345-1.002-1.905 0-3.41.599-4.517 1.795-1.107 1.196-1.66 2.832-1.66 4.907 0 2.181.496 3.841 1.49 4.98 1 1.132 2.437 1.697 4.308 1.697.944 0 1.953-.118 3.028-.354v-4.602h-3.7V40.32zm22.534 2.905c0 2.206-.566 3.927-1.697 5.164-1.131 1.237-2.706 1.855-4.724 1.855-1.261 0-2.376-.285-3.345-.854-.968-.57-1.713-1.388-2.233-2.454-.521-1.066-.782-2.303-.782-3.71 0-2.19.562-3.899 1.685-5.128s2.706-1.843 4.748-1.843c1.953 0 3.5.63 4.639 1.892 1.139 1.253 1.709 2.946 1.709 5.078zm-9.827 0c0 3.117 1.152 4.675 3.455 4.675 2.279 0 3.418-1.558 3.418-4.675 0-3.084-1.148-4.626-3.442-4.626-1.205 0-2.08.398-2.625 1.196-.537.797-.806 1.94-.806 3.43zm25.11 0c0 2.206-.565 3.927-1.697 5.164-1.131 1.237-2.705 1.855-4.724 1.855-1.261 0-2.376-.285-3.344-.854-.969-.57-1.713-1.388-2.234-2.454-.521-1.066-.782-2.303-.782-3.71 0-2.19.562-3.899 1.685-5.128s2.706-1.843 4.749-1.843c1.953 0 3.499.63 4.638 1.892 1.14 1.253 1.709 2.946 1.709 5.078zm-9.826 0c0 3.117 1.151 4.675 3.454 4.675 2.279 0 3.418-1.558 3.418-4.675 0-3.084-1.147-4.626-3.442-4.626-1.205 0-2.08.398-2.625 1.196-.537.797-.805 1.94-.805 3.43zm24.536-6.726v1.575l-2.307.427c.211.285.386.635.524 1.05.139.415.208.854.208 1.318 0 1.392-.48 2.486-1.44 3.284-.961.797-2.283 1.196-3.968 1.196-.431 0-.822-.032-1.172-.097-.618.382-.927.83-.927 1.342 0 .31.142.541.427.696.293.155.826.232 1.599.232h2.356c1.489 0 2.62.317 3.394.952.773.635 1.159 1.55 1.159 2.747 0 1.53-.631 2.71-1.892 3.54-1.261.83-3.084 1.245-5.469 1.245-1.839 0-3.243-.326-4.211-.977-.969-.65-1.453-1.579-1.453-2.783 0-.83.261-1.53.782-2.1.529-.561 1.265-.952 2.209-1.171a2.21 2.21 0 0 1-.952-.782 2.04 2.04 0 0 1-.366-1.147c0-.505.142-.932.427-1.282.285-.35.708-.696 1.269-1.037-.699-.301-1.269-.79-1.709-1.465-.431-.684-.647-1.481-.647-2.393 0-1.465.46-2.6 1.38-3.406.928-.805 2.246-1.208 3.955-1.208.382 0 .781.028 1.196.085.423.05.741.102.952.159h4.676zm-10.608 15.6c0 .62.276 1.095.83 1.429.561.334 1.347.5 2.356.5 1.562 0 2.726-.224 3.491-.671.765-.448 1.147-1.042 1.147-1.782 0-.586-.211-1.005-.634-1.258-.415-.244-1.193-.366-2.332-.366h-2.173c-.822 0-1.477.191-1.965.574-.48.39-.72.915-.72 1.575zm1.233-11.23c0 .846.215 1.498.647 1.953.439.456 1.066.684 1.88.684 1.66 0 2.49-.887 2.49-2.661 0-.88-.208-1.555-.623-2.027-.407-.48-1.029-.72-1.867-.72-.831 0-1.461.236-1.893.708-.423.472-.634 1.16-.634 2.063zM139.668 50h-2.869V31.006h2.869V50zm10.01.244c-2.1 0-3.744-.61-4.932-1.83-1.18-1.23-1.77-2.918-1.77-5.067 0-2.205.549-3.939 1.648-5.2 1.099-1.261 2.608-1.892 4.529-1.892 1.782 0 3.19.541 4.223 1.623 1.034 1.083 1.551 2.572 1.551 4.468v1.55h-8.997c.041 1.31.395 2.32 1.062 3.028.668.7 1.607 1.05 2.82 1.05.798 0 1.538-.074 2.222-.22a11.974 11.974 0 0 0 2.221-.757v2.332a8.793 8.793 0 0 1-2.124.708c-.716.138-1.534.207-2.453.207zm-.525-11.816c-.912 0-1.644.289-2.197.866-.546.578-.871 1.42-.977 2.527h6.128c-.016-1.115-.285-1.957-.806-2.527-.521-.577-1.237-.866-2.148-.866zm27.649-.88c0 1.864-.611 3.293-1.831 4.285-1.221.993-2.958 1.49-5.213 1.49h-1.855V50h-2.918V32.153h5.14c2.229 0 3.898.456 5.004 1.367 1.115.912 1.673 2.255 1.673 4.029zm-8.899 3.321h1.55c1.498 0 2.596-.26 3.296-.781.7-.52 1.05-1.335 1.05-2.441 0-1.026-.313-1.79-.94-2.295-.627-.505-1.603-.757-2.93-.757h-2.026v6.274zM182.93 50h-2.869V31.006h2.869V50zm12.561 0l-.574-1.88h-.098c-.651.822-1.306 1.384-1.965 1.685-.659.293-1.506.44-2.539.44-1.327 0-2.364-.359-3.113-1.075-.74-.716-1.111-1.73-1.111-3.04 0-1.391.517-2.441 1.551-3.149 1.033-.708 2.608-1.095 4.724-1.16l2.331-.073v-.72c0-.863-.203-1.506-.61-1.929-.399-.431-1.021-.647-1.868-.647-.691 0-1.355.102-1.99.305-.634.204-1.245.444-1.831.72l-.927-2.05a9.804 9.804 0 0 1 2.404-.867 10.858 10.858 0 0 1 2.466-.305c1.717 0 3.011.374 3.882 1.123.879.749 1.319 1.925 1.319 3.528V50h-2.051zm-4.273-1.953c1.042 0 1.876-.289 2.503-.867.634-.586.952-1.404.952-2.453v-1.172l-1.734.073c-1.35.049-2.335.277-2.954.684-.61.398-.915 1.013-.915 1.843 0 .602.179 1.07.537 1.404.358.325.895.488 1.611.488zm8.277-11.548h3.125l2.746 7.654c.415 1.09.692 2.116.83 3.076h.098c.073-.448.207-.989.403-1.623.195-.643 1.229-3.679 3.1-9.107h3.101l-5.774 15.295c-1.05 2.808-2.799 4.212-5.249 4.212a8.25 8.25 0 0 1-1.855-.208v-2.27c.431.098.923.146 1.477.146 1.383 0 2.356-.801 2.917-2.404l.501-1.27-5.42-13.501zM75.895 19.128h2.627v3.584a7.586 7.586 0 0 1-2.52.386c-1.08 0-1.914-.32-2.5-.957-.586-.642-.879-1.545-.879-2.71 0-1.15.33-2.048.992-2.696.66-.65 1.57-.976 2.73-.976.745 0 1.451.143 2.118.43l-.41.971a4.122 4.122 0 0 0-1.738-.4c-.762 0-1.364.239-1.807.717-.442.48-.664 1.133-.664 1.963 0 .873.199 1.537.596 1.993.4.452.975.678 1.724.678.377 0 .78-.047 1.21-.141v-1.841h-1.48v-1.001zM84.629 23H80.59v-7.139h4.038v.987h-2.871v1.943h2.69v.977h-2.69v2.24h2.87V23zm4.363 0h-1.167v-6.138h-2.1v-1h5.367v1h-2.1V23zm6.496 0v-7.139h1.167V23h-1.167zm5.873 0h-1.167v-6.138h-2.1v-1h5.366v1h-2.099V23zm12.834-3.58c0 1.163-.292 2.066-.874 2.71-.58.645-1.402.968-2.466.968-1.078 0-1.906-.32-2.486-.957-.576-.642-.864-1.551-.864-2.73 0-1.178.29-2.083.869-2.715.583-.631 1.413-.947 2.49-.947 1.062 0 1.882.32 2.461.962.58.641.87 1.545.87 2.71zm-5.45 0c0 .88.178 1.547.533 2.003.354.452.88.679 1.577.679.693 0 1.216-.225 1.567-.674.355-.45.532-1.118.532-2.007 0-.876-.175-1.54-.527-1.992-.348-.453-.869-.679-1.563-.679-.699 0-1.228.226-1.586.679-.355.452-.533 1.116-.533 1.992zm13.28 3.58h-1.431l-3.51-5.689h-.039l.024.318c.046.605.068 1.159.068 1.66V23h-1.059v-7.139h1.416l3.501 5.66h.029a33.12 33.12 0 0 1-.039-.816c-.02-.472-.029-.84-.029-1.103v-3.74h1.069V23z"/>
    <g clip-path="url(#b)">
        <path fill="url(#c)" d="M41.892 35.504l-22.598 21.76a3.845 3.845 0 0 1-1.676-3.208V16.951a3.845 3.845 0 0 1 1.676-3.207l22.598 21.76z"/>
        <path fill="#90F094" d="M49.799 27.903l-7.907 7.601-22.598-21.76c.085-.066.174-.128.265-.184a3.866 3.866 0 0 1 3.903-.062l26.337 14.405z"/>
        <path fill="#FEE392" d="M59.382 35.504a3.907 3.907 0 0 1-2.043 3.474l-7.54 4.127-7.907-7.601 7.907-7.6 7.54 4.127a3.907 3.907 0 0 1 2.043 3.473z"/>
        <path fill="#EE6258" d="M49.799 43.105L23.462 57.509a3.917 3.917 0 0 1-3.903-.06 2.995 2.995 0 0 1-.265-.185l22.598-21.76 7.907 7.6z"/>
    </g>
    <defs>
        <filter id="a" width="236" height="76" x="0" y="0" color-interpolation-filters="sRGB" filterUnits="userSpaceOnUse">
            <feFlood flood-opacity="0" result="BackgroundImageFix"/>
            <feColorMatrix in="SourceAlpha" values="0 0 0 0 0 0 0 0 0 0 0 0 0 0 0 0 0 0 127 0"/>
            <feOffset dx="3" dy="3"/>
            <feGaussianBlur stdDeviation="1.5"/>
            <feColorMatrix values="0 0 0 0 0 0 0 0 0 0 0 0 0 0 0 0 0 0 0.22 0"/>
            <feBlend in2="BackgroundImageFix" result="effect1_dropShadow"/>
            <feBlend in="SourceGraphic" in2="effect1_dropShadow" result="shape"/>
        </filter>
        <linearGradient id="c" x1="33" x2="18" y1="29" y2="57" gradientUnits="userSpaceOnUse">
            <stop stop-color="#7DC1F8"/>
            <stop offset="1" stop-color="#7DF8F1"/>
        </linearGradient>
        <clipPath id="b">
            <path fill="#fff" d="M16 13h45v45H16z"/>
        </clipPath>
    </defs>
</svg>
